<?xml version="1.0" encoding="UTF-8"?>
<svg version="1.1" xmlns="http://www.w3.org/2000/svg" width="471" height="530">
<path d="M0 0 C2.57623872 -0.00644192 5.15247673 -0.01317127 7.72871399 -0.02017212 C13.11042286 -0.03209355 18.49205988 -0.03594485 23.8737793 -0.03466797 C30.03874914 -0.03346906 36.20336754 -0.05454577 42.36824864 -0.0861553 C48.36381285 -0.11576799 54.35919061 -0.1226358 60.35483742 -0.12144852 C62.87541958 -0.12378418 65.39600531 -0.13249053 67.91654015 -0.14811325 C89.99970042 -0.27218942 109.19433087 2.2906349 129.42578125 11.3359375 C130.11124023 11.64015625 130.79669922 11.944375 131.50292969 12.2578125 C139.56465992 15.90083468 147.04180333 20.18210883 154.36328125 25.1484375 C155.05631348 25.61668945 155.7493457 26.08494141 156.46337891 26.56738281 C161.29922693 29.95627454 161.29922693 29.95627454 162.42578125 33.3359375 C163.10640625 33.5834375 163.78703125 33.8309375 164.48828125 34.0859375 C168.81034736 35.92511457 172.19851115 38.940497 175.42578125 42.3359375 C175.42578125 42.9959375 175.42578125 43.6559375 175.42578125 44.3359375 C176.02390625 44.6040625 176.62203125 44.8721875 177.23828125 45.1484375 C179.42425979 46.33511156 180.83910719 47.43192863 182.42578125 49.3359375 C182.42578125 49.9959375 182.42578125 50.6559375 182.42578125 51.3359375 C183.08578125 51.3359375 183.74578125 51.3359375 184.42578125 51.3359375 C186.3359375 53.6015625 186.3359375 53.6015625 188.48828125 56.5859375 C189.20113281 57.56046875 189.91398437 58.535 190.6484375 59.5390625 C192.17993374 61.94906537 192.99574271 63.55722693 193.42578125 66.3359375 C194.08578125 66.3359375 194.74578125 66.3359375 195.42578125 66.3359375 C196.01746094 67.38652344 196.60914063 68.43710938 197.21875 69.51953125 C197.59926514 70.19516113 197.97978027 70.87079102 198.37182617 71.56689453 C199.20501037 73.04778318 200.03719164 74.5292365 200.8684082 76.01123047 C202.53796661 78.9875564 204.20762244 81.96154517 205.92578125 84.91015625 C214.3629325 99.48089443 219.60260372 115.78156561 222.42578125 132.3359375 C222.59198975 133.203396 222.75819824 134.07085449 222.92944336 134.96459961 C224.68056575 144.86640076 224.82295819 154.625752 224.80078125 164.6484375 C224.80056976 165.53000519 224.80035828 166.41157288 224.80014038 167.31985474 C224.76593289 181.63171584 223.8652508 195.38728485 220.42578125 209.3359375 C220.22791016 210.1398291 220.03003906 210.9437207 219.82617188 211.77197266 C215.8662111 227.28822671 209.16002522 241.26945942 201.67578125 255.3359375 C201.26457031 256.11066406 200.85335938 256.88539063 200.4296875 257.68359375 C199.42923809 259.56816124 198.4276324 261.45211482 197.42578125 263.3359375 C196.76578125 263.3359375 196.10578125 263.3359375 195.42578125 263.3359375 C195.28140625 263.9546875 195.13703125 264.5734375 194.98828125 265.2109375 C194.42578125 267.3359375 194.42578125 267.3359375 193.42578125 269.3359375 C192.76578125 269.3359375 192.10578125 269.3359375 191.42578125 269.3359375 C191.15765625 270.0784375 190.88953125 270.8209375 190.61328125 271.5859375 C189.47301374 274.22655699 188.33197819 276.19146594 186.42578125 278.3359375 C185.76578125 278.3359375 185.10578125 278.3359375 184.42578125 278.3359375 C184.16410156 278.9134375 183.90242188 279.4909375 183.6328125 280.0859375 C180.62614538 285.69059853 175.642794 290.75855733 170.42578125 294.3359375 C169.76578125 294.3359375 169.10578125 294.3359375 168.42578125 294.3359375 C168.42578125 294.9959375 168.42578125 295.6559375 168.42578125 296.3359375 C164.96424279 299.3359375 164.96424279 299.3359375 162.42578125 299.3359375 C162.42578125 299.9959375 162.42578125 300.6559375 162.42578125 301.3359375 C160.49774846 302.84693498 158.5824436 304.22680604 156.55078125 305.5859375 C155.95362305 305.98925293 155.35646484 306.39256836 154.74121094 306.80810547 C152.97511822 307.99291057 151.20116326 309.16511706 149.42578125 310.3359375 C148.60335938 310.89023437 147.7809375 311.44453125 146.93359375 312.015625 C136.62880438 318.61211646 124.76745959 323.13923092 112.859375 325.7890625 C110.28263862 326.32273136 110.28263862 326.32273136 107.30078125 327.3984375 C99.29004975 330.01063255 91.2498313 330.70766357 82.87109375 330.95703125 C81.75872345 330.99477158 80.64635315 331.0325119 79.50027466 331.07139587 C65.48184376 331.49661812 51.45919916 331.44959076 37.43609619 331.40460205 C33.80766413 331.39412694 30.17922427 331.38975426 26.55078125 331.38476562 C19.50909667 331.37423616 12.46744202 331.35731288 5.42578125 331.3359375 C5.42800186 332.20226303 5.43022247 333.06858856 5.43251038 333.96116638 C5.4528995 342.29493832 5.467946 350.6287014 5.47759342 358.96249294 C5.48272056 363.24266598 5.4896222 367.52281773 5.5012207 371.80297852 C5.54861186 389.76256221 5.47471553 407.6936498 4.85075569 425.64360237 C4.37611351 439.3381193 4.339612 453.01002596 4.42578125 466.7109375 C4.45242266 471.15624668 4.47224211 475.60151659 4.48828125 480.046875 C4.50072876 481.54170914 4.50072876 481.54170914 4.51342773 483.06674194 C4.51673096 483.98105988 4.52003418 484.89537781 4.5234375 485.83740234 C4.52867432 486.63721527 4.53391113 487.4370282 4.53930664 488.26107788 C4.42578125 490.3359375 4.42578125 490.3359375 3.42578125 493.3359375 C-19.67421875 493.0059375 -42.77421875 492.6759375 -66.57421875 492.3359375 C-67.5034047 488.6191937 -67.69993608 485.81436245 -67.70120239 482.01481628 C-67.70402222 480.71202728 -67.70684204 479.40923828 -67.70974731 478.06697083 C-67.7078024 476.62301622 -67.70575419 475.17906175 -67.70361328 473.73510742 C-67.70496911 472.21114053 -67.70675007 470.68717396 -67.70892334 469.16320801 C-67.71349874 465.00438064 -67.71170169 460.845578 -67.70854425 456.68675017 C-67.70599434 452.27060239 -67.70836793 447.85445659 -67.70993042 443.43830872 C-67.71175569 435.95862457 -67.70934814 428.47895023 -67.70458984 420.99926758 C-67.69984327 413.45433907 -67.69968146 405.90943036 -67.70458984 398.36450195 C-67.73384392 352.34476656 -67.5169819 306.34704658 -66.57421875 260.3359375 C-65.84829655 260.33262735 -65.12237434 260.32931721 -64.3744545 260.32590675 C-46.67000446 260.2445079 -28.96564258 260.15236085 -11.26131058 260.04841042 C-2.69945289 259.99839599 5.86239576 259.95195227 14.42431641 259.9140625 C21.89126414 259.88100918 29.35813931 259.8411054 36.82500672 259.79314744 C40.7746688 259.76801435 44.72428358 259.74619499 48.6740036 259.73259354 C52.40044801 259.71965235 56.12672907 259.69747154 59.85308266 259.66855431 C61.85461379 259.65532648 63.85620077 259.6515805 65.85777283 259.64823914 C85.65825044 259.46701534 104.50877578 254.21468613 118.859375 239.91015625 C120.02085368 238.5506708 121.1510058 237.16280463 122.2265625 235.734375 C122.62230469 235.27289063 123.01804687 234.81140625 123.42578125 234.3359375 C124.08578125 234.3359375 124.74578125 234.3359375 125.42578125 234.3359375 C125.68875 233.76875 125.95171875 233.2015625 126.22265625 232.6171875 C127.51599489 230.16488306 129.02701479 228.06400028 130.67578125 225.8359375 C137.51291843 216.13344408 141.76654638 205.57699615 145.42578125 194.3359375 C145.7815625 193.27826172 145.7815625 193.27826172 146.14453125 192.19921875 C154.34279903 164.40950223 146.24465709 133.36373844 132.890625 108.81640625 C131.48290064 106.31969402 131.48290064 106.31969402 129.7421875 104.13671875 C128.42578125 102.3359375 128.42578125 102.3359375 128.42578125 100.3359375 C127.76578125 100.3359375 127.10578125 100.3359375 126.42578125 100.3359375 C124.73845848 98.35333324 123.07212068 96.3527033 121.42578125 94.3359375 C120.76578125 94.0059375 120.10578125 93.6759375 119.42578125 93.3359375 C119.42578125 92.6759375 119.42578125 92.0159375 119.42578125 91.3359375 C118.82765625 91.0471875 118.22953125 90.7584375 117.61328125 90.4609375 C115.42578125 89.3359375 115.42578125 89.3359375 112.42578125 87.3359375 C112.42578125 86.6759375 112.42578125 86.0159375 112.42578125 85.3359375 C111.69746094 85.06652344 110.96914063 84.79710938 110.21875 84.51953125 C107.49314264 83.36448365 105.21621943 82.00807338 102.73828125 80.3984375 C97.79514382 77.38861604 93.04999629 75.6170087 87.42578125 74.3359375 C86.72161733 74.17410382 86.0174534 74.01227015 85.29195118 73.84553242 C79.48352035 72.587404 74.02016287 72.04292009 68.08666992 72.0612793 C67.21185974 72.05616837 66.33704956 72.05105743 65.43572998 72.04579163 C62.57166499 72.03200706 59.70784404 72.03284557 56.84375 72.03515625 C54.82326674 72.03126007 52.80278428 72.02692353 50.78230286 72.02217102 C46.55186306 72.01473025 42.32150672 72.01498219 38.09106445 72.02026367 C32.73040768 72.0260213 27.37010061 72.00920692 22.00950146 71.985919 C17.83356301 71.97100969 13.65770513 71.97033358 9.48174477 71.97342873 C7.50904975 71.97292296 5.53634929 71.96782924 3.56368065 71.95761681 C-6.71015906 71.9109949 -16.76458066 72.25870179 -26.9519043 73.67114258 C-27.80156423 73.78744113 -28.65122416 73.90373968 -29.52663136 74.02356243 C-34.88769795 74.84699262 -39.55186703 76.28831305 -44.57421875 78.3359375 C-45.63125 78.71234375 -46.68828125 79.08875 -47.77734375 79.4765625 C-58.1716877 83.26116978 -67.43675162 88.30924993 -76.05078125 95.26953125 C-77.57421875 96.3359375 -77.57421875 96.3359375 -79.57421875 96.3359375 C-79.57421875 96.9959375 -79.57421875 97.6559375 -79.57421875 98.3359375 C-85.05040923 103.3359375 -85.05040923 103.3359375 -87.57421875 103.3359375 C-87.97640625 104.23699219 -87.97640625 104.23699219 -88.38671875 105.15625 C-89.59331875 107.37099606 -90.70514054 108.54853621 -92.57421875 110.2109375 C-95.98375661 113.52813371 -98.80997524 117.1655426 -101.57421875 121.0234375 C-101.96480469 121.56274902 -102.35539062 122.10206055 -102.7578125 122.65771484 C-109.72877658 132.54562742 -114.74680962 142.48083796 -118.38671875 154.0234375 C-118.76763672 155.18166016 -119.14855469 156.33988281 -119.54101562 157.53320312 C-122.7882474 167.54787066 -124.87387688 177.06583431 -125.68502808 187.56871033 C-125.76933669 188.6531077 -125.8536453 189.73750507 -125.94050872 190.85476297 C-126.83350911 203.42733881 -126.84619066 215.98756257 -126.80634999 228.58595908 C-126.79753074 232.10225233 -126.80064837 235.61854068 -126.80215454 239.13484192 C-126.80319199 245.19511779 -126.79703659 251.25534985 -126.78567886 257.3156147 C-126.76926937 266.07721498 -126.76420027 274.83879457 -126.76170288 283.60040855 C-126.75734969 297.82321724 -126.74410588 312.04600271 -126.72509766 326.26879883 C-126.70667679 340.06664923 -126.69255087 353.86449327 -126.68408203 367.66235352 C-126.68355658 368.51604015 -126.68303114 369.36972679 -126.68248977 370.24928273 C-126.67987927 374.53292935 -126.67735196 378.81657601 -126.67486596 383.10022271 C-126.65420763 418.51214418 -126.61904781 453.92403868 -126.57421875 489.3359375 C-135.81419427 489.35906274 -145.05415989 489.37685351 -154.29415798 489.38774967 C-158.5842179 489.39297811 -162.87425808 489.40007503 -167.16430664 489.41137695 C-171.30101275 489.42220725 -175.43769983 489.42821464 -179.57441902 489.43081474 C-181.15614179 489.43266874 -182.73786346 489.43628886 -184.31957817 489.44166756 C-186.52744713 489.4488799 -188.73523648 489.44992836 -190.94311523 489.44946289 C-192.202202 489.4516835 -193.46128876 489.45390411 -194.75852966 489.45619202 C-197.57421875 489.3359375 -197.57421875 489.3359375 -198.57421875 488.3359375 C-198.68323698 486.38995667 -198.72112803 484.4399814 -198.73243713 482.49098206 C-198.7422269 481.21577824 -198.75201666 479.94057442 -198.76210308 478.62672806 C-198.76801343 477.19589528 -198.77382249 475.76506208 -198.77954102 474.33422852 C-198.78911648 472.832129 -198.79911823 471.33003214 -198.80951405 469.82793808 C-198.83675524 465.70168046 -198.85768407 461.57541125 -198.87750387 457.44911218 C-198.89959865 453.05534386 -198.92720605 448.66160968 -198.95401001 444.26786804 C-199.01073399 434.77832199 -199.05972535 425.2887455 -199.10705185 415.79914856 C-199.1364089 409.92033213 -199.16751661 404.04152573 -199.19888306 398.16271973 C-199.3373747 372.08708555 -199.45810691 346.01139674 -199.56368065 319.93560886 C-199.57389646 317.41544374 -199.58421942 314.89527907 -199.59455872 312.37511444 C-199.6676045 294.4822589 -199.72567223 276.58950117 -199.75045776 258.69650269 C-199.75697983 254.01185073 -199.76776176 249.32724178 -199.78250122 244.64260864 C-199.97533451 179.82763295 -199.97533451 179.82763295 -194.57421875 155.3359375 C-194.25915215 153.80494718 -193.94540828 152.27368422 -193.6328125 150.7421875 C-188.01479795 123.77738887 -176.14167028 99.31695059 -160.76171875 76.5859375 C-160.28114014 75.86921875 -159.80056152 75.1525 -159.30541992 74.4140625 C-158.11499111 72.68345153 -156.8507227 71.00407201 -155.57421875 69.3359375 C-154.91421875 69.3359375 -154.25421875 69.3359375 -153.57421875 69.3359375 C-153.34992188 68.79582031 -153.125625 68.25570312 -152.89453125 67.69921875 C-151.15659561 64.58841678 -148.86387592 62.11334216 -146.44921875 59.5234375 C-145.96074463 58.99588867 -145.47227051 58.46833984 -144.96899414 57.92480469 C-141.11273382 53.80927347 -137.18337657 49.61664131 -132.57421875 46.3359375 C-131.91421875 46.3359375 -131.25421875 46.3359375 -130.57421875 46.3359375 C-130.57421875 45.6759375 -130.57421875 45.0159375 -130.57421875 44.3359375 C-129.91421875 44.3359375 -129.25421875 44.3359375 -128.57421875 44.3359375 C-128.57421875 43.6759375 -128.57421875 43.0159375 -128.57421875 42.3359375 C-126.73828125 40.85546875 -126.73828125 40.85546875 -124.19921875 39.1484375 C-123.28269531 38.52710938 -122.36617188 37.90578125 -121.421875 37.265625 C-120.48214844 36.62882812 -119.54242188 35.99203125 -118.57421875 35.3359375 C-116.92778396 34.14927155 -115.28193326 32.96179469 -113.63671875 31.7734375 C-100.14237486 22.3359375 -100.14237486 22.3359375 -94.57421875 22.3359375 C-94.57421875 21.6759375 -94.57421875 21.0159375 -94.57421875 20.3359375 C-80.92061692 14.41042772 -80.92061692 14.41042772 -76.13671875 12.6484375 C-72.59582237 11.40239121 -72.59582237 11.40239121 -69.38671875 9.8359375 C-65.06082528 7.94397498 -60.4916255 7.089895 -55.89453125 6.08984375 C-52.95082592 5.42144948 -50.09140063 4.63245868 -47.19921875 3.7734375 C-31.70891187 -0.41767174 -15.92071106 0.00941842 0 0 Z " fill="#43ABDA" transform="translate(226.57421875,17.6640625)"/>
<path d="M0 0 C0.66 0 1.32 0 2 0 C3.91015625 2.265625 3.91015625 2.265625 6.0625 5.25 C6.77535156 6.22453125 7.48820312 7.1990625 8.22265625 8.203125 C9.75415249 10.61312787 10.56996146 12.22128943 11 15 C11.66 15 12.32 15 13 15 C13.59167969 16.05058594 14.18335938 17.10117188 14.79296875 18.18359375 C15.17348389 18.85922363 15.55399902 19.53485352 15.94604492 20.23095703 C16.77922912 21.71184568 17.61141039 23.193299 18.44262695 24.67529297 C20.11218536 27.6516189 21.78184119 30.62560767 23.5 33.57421875 C31.93715125 48.14495693 37.17682247 64.44562811 40 81 C40.1662085 81.8674585 40.33241699 82.73491699 40.50366211 83.62866211 C42.2547845 93.53046326 42.39717694 103.2898145 42.375 113.3125 C42.37478851 114.19406769 42.37457703 115.07563538 42.37435913 115.98391724 C42.34015164 130.29577834 41.43946955 144.05134735 38 158 C37.80212891 158.8038916 37.60425781 159.6077832 37.40039062 160.43603516 C33.44042985 175.95228921 26.73424397 189.93352192 19.25 204 C18.83878906 204.77472656 18.42757813 205.54945313 18.00390625 206.34765625 C17.00345684 208.23222374 16.00185115 210.11617732 15 212 C14.34 212 13.68 212 13 212 C12.855625 212.61875 12.71125 213.2375 12.5625 213.875 C12 216 12 216 11 218 C10.34 218 9.68 218 9 218 C8.731875 218.7425 8.46375 219.485 8.1875 220.25 C7.04723249 222.89061949 5.90619694 224.85552844 4 227 C3.34 227 2.68 227 2 227 C1.73832031 227.5775 1.47664062 228.155 1.20703125 228.75 C-1.79963587 234.35466103 -6.78298725 239.42261983 -12 243 C-12.66 243 -13.32 243 -14 243 C-14 243.66 -14 244.32 -14 245 C-17.46153846 248 -17.46153846 248 -20 248 C-20 248.66 -20 249.32 -20 250 C-21.92803279 251.51099748 -23.84333765 252.89086854 -25.875 254.25 C-26.4721582 254.65331543 -27.06931641 255.05663086 -27.68457031 255.47216797 C-29.45066303 256.65697307 -31.22461799 257.82917956 -33 259 C-33.82242188 259.55429687 -34.64484375 260.10859375 -35.4921875 260.6796875 C-45.79697687 267.27617896 -57.65832166 271.80329342 -69.56640625 274.453125 C-72.14314263 274.98679386 -72.14314263 274.98679386 -75.125 276.0625 C-83.1357315 278.67469505 -91.17594995 279.37172607 -99.5546875 279.62109375 C-100.6670578 279.65883408 -101.7794281 279.6965744 -102.92550659 279.73545837 C-116.94393749 280.16068062 -130.96658209 280.11365326 -144.98968506 280.06866455 C-148.61811712 280.05818944 -152.24655698 280.05381676 -155.875 280.04882812 C-162.91668458 280.03829866 -169.95833923 280.02137538 -177 280 C-176.99777939 280.86632553 -176.99555878 281.73265106 -176.99327087 282.62522888 C-176.97288175 290.95900082 -176.95783525 299.2927639 -176.94818783 307.62655544 C-176.94306069 311.90672848 -176.93615905 316.18688023 -176.92456055 320.46704102 C-176.87716939 338.42662471 -176.95106572 356.3577123 -177.57502556 374.30766487 C-178.04966774 388.0021818 -178.08616925 401.67408846 -178 415.375 C-177.97335859 419.82030918 -177.95353914 424.26557909 -177.9375 428.7109375 C-177.92505249 430.20577164 -177.92505249 430.20577164 -177.91235352 431.73080444 C-177.90905029 432.64512238 -177.90574707 433.55944031 -177.90234375 434.50146484 C-177.89710693 435.30127777 -177.89187012 436.1010907 -177.88647461 436.92514038 C-178 439 -178 439 -179 442 C-202.1 441.67 -225.2 441.34 -249 441 C-249.92918595 437.2832562 -250.12571733 434.47842495 -250.12698364 430.67887878 C-250.12980347 429.37608978 -250.13262329 428.07330078 -250.13552856 426.73103333 C-250.13358365 425.28707872 -250.13153544 423.84312425 -250.12939453 422.39916992 C-250.13075036 420.87520303 -250.13253132 419.35123646 -250.13470459 417.82727051 C-250.13927999 413.66844314 -250.13748294 409.5096405 -250.1343255 405.35081267 C-250.13177559 400.93466489 -250.13414918 396.51851909 -250.13571167 392.10237122 C-250.13753694 384.62268707 -250.13512939 377.14301273 -250.13037109 369.66333008 C-250.12562452 362.11840157 -250.12546271 354.57349286 -250.13037109 347.02856445 C-250.15962517 301.00882906 -249.94276315 255.01110908 -249 209 C-248.2740778 208.99668985 -247.54815559 208.99337971 -246.80023575 208.98996925 C-229.09578571 208.9085704 -211.39142383 208.81642335 -193.68709183 208.71247292 C-185.12523414 208.66245849 -176.56338549 208.61601477 -168.00146484 208.578125 C-160.53451711 208.54507168 -153.06764194 208.5051679 -145.60077453 208.45720994 C-141.65111245 208.43207685 -137.70149767 208.41025749 -133.75177765 208.39665604 C-130.02533324 208.38371485 -126.29905218 208.36153404 -122.57269859 208.33261681 C-120.57116746 208.31938898 -118.56958048 208.315643 -116.56800842 208.31230164 C-96.76753081 208.13107784 -77.91700547 202.87874863 -63.56640625 188.57421875 C-62.40492757 187.2147333 -61.27477545 185.82686713 -60.19921875 184.3984375 C-59.80347656 183.93695313 -59.40773438 183.47546875 -59 183 C-58.34 183 -57.68 183 -57 183 C-56.73703125 182.4328125 -56.4740625 181.865625 -56.203125 181.28125 C-54.90978636 178.82894556 -53.39876646 176.72806278 -51.75 174.5 C-44.91286282 164.79750658 -40.65923487 154.24105865 -37 143 C-36.64421875 141.94232422 -36.64421875 141.94232422 -36.28125 140.86328125 C-28.08298222 113.07356473 -36.18112416 82.02780094 -49.53515625 57.48046875 C-50.94288061 54.98375652 -50.94288061 54.98375652 -52.68359375 52.80078125 C-54 51 -54 51 -54 49 C-54.66 49 -55.32 49 -56 49 C-57.2890625 47.46875 -57.2890625 47.46875 -58.625 45.5 C-59.07101562 44.8503125 -59.51703125 44.200625 -59.9765625 43.53125 C-60.31429687 43.0259375 -60.65203125 42.520625 -61 42 C-57.88801935 43.49836105 -54.9465385 45.19933758 -52 47 C-50.88625 46.34 -49.7725 45.68 -48.625 45 C-45.25 43 -45.25 43 -43 43 C-43 42.34 -43 41.68 -43 41 C-41.1762979 39.4979541 -39.28886233 38.07283831 -37.375 36.6875 C-32.53717136 33.17576655 -32.53717136 33.17576655 -27.875 29.4375 C-25.18793383 27.1593352 -22.4809921 24.91275283 -19.75 22.6875 C-18.89921875 21.99011719 -18.0484375 21.29273437 -17.171875 20.57421875 C-15 19 -15 19 -13 19 C-12.67 18.01 -12.34 17.02 -12 16 C-7.66666667 13 -7.66666667 13 -5 13 C-4.79375 12.401875 -4.5875 11.80375 -4.375 11.1875 C-2.49073918 8.18981233 -0.18867916 7.38638224 3 6 C2.01 5.01 2.01 5.01 1 4 C0.375 1.875 0.375 1.875 0 0 Z " fill="#2972A0" transform="translate(409,69)"/>
<path d="M0 0 C-6.70371077 4.46914052 -15.8788762 3.17050374 -23.64624023 3.20532227 C-25.02656845 3.21491347 -26.4068938 3.22492427 -27.78721619 3.23532104 C-31.51806925 3.26224162 -35.2489348 3.28332031 -38.9798305 3.30332303 C-42.88493773 3.3252623 -46.79000704 3.35261197 -50.69508362 3.37937927 C-58.08260048 3.42919917 -65.47013851 3.47417749 -72.85769659 3.51740164 C-81.2712668 3.56686576 -89.68479894 3.62174973 -98.09833229 3.67708123 C-115.39885297 3.79073686 -132.69940904 3.89761135 -150 4 C-149.21864152 5.11633431 -148.43417931 6.23049658 -147.6484375 7.34375 C-147.21192871 7.96443359 -146.77541992 8.58511719 -146.32568359 9.22460938 C-144.44569865 11.74233507 -142.27340116 13.83485604 -140 16 C-138.83064207 17.16396918 -137.66414415 18.33081626 -136.5 19.5 C-135.9534375 20.0465625 -135.406875 20.593125 -134.84375 21.15625 C-134.2353125 21.7646875 -133.626875 22.373125 -133 23 C-132.3201001 23.6791748 -131.6402002 24.35834961 -130.93969727 25.05810547 C-127.81842898 28.17930285 -124.70462616 31.30792557 -121.58995056 34.43569946 C-118.12174293 37.91726127 -114.65091556 41.39620629 -111.17993164 44.875 C-109.34896059 46.71102403 -107.51888465 48.54794113 -105.68969727 50.38574219 C-103.04418148 53.04337266 -100.39546253 55.69777373 -97.74609375 58.3515625 C-96.92934677 59.17347076 -96.11259979 59.99537903 -95.27110291 60.8421936 C-94.12454979 61.98886002 -94.12454979 61.98886002 -92.95483398 63.15869141 C-92.28596664 63.82977936 -91.6170993 64.50086731 -90.92796326 65.19229126 C-89.02122219 67.05840208 -89.02122219 67.05840208 -86.75282288 68.61508179 C-85.88517555 69.3006163 -85.88517555 69.3006163 -85 70 C-85 70.66 -85 71.32 -85 72 C-83.515 72.495 -83.515 72.495 -82 73 C-81.97639539 82.20884746 -81.95884827 91.41768388 -81.94818783 100.62655544 C-81.94306069 104.90672848 -81.93615905 109.18688023 -81.92456055 113.46704102 C-81.87716939 131.42662471 -81.95106572 149.3577123 -82.57502556 167.30766487 C-83.04966774 181.0021818 -83.08616925 194.67408846 -83 208.375 C-82.97335859 212.82030918 -82.95353914 217.26557909 -82.9375 221.7109375 C-82.92505249 223.20577164 -82.92505249 223.20577164 -82.91235352 224.73080444 C-82.90905029 225.64512238 -82.90574707 226.55944031 -82.90234375 227.50146484 C-82.89710693 228.30127777 -82.89187012 229.1010907 -82.88647461 229.92514038 C-83 232 -83 232 -84 235 C-118.65 234.505 -118.65 234.505 -154 234 C-154.92918595 230.2832562 -155.12571733 227.47842495 -155.12698364 223.67887878 C-155.12980347 222.37608978 -155.13262329 221.07330078 -155.13552856 219.73103333 C-155.13358365 218.28707872 -155.13153544 216.84312425 -155.12939453 215.39916992 C-155.13075036 213.87520303 -155.13253132 212.35123646 -155.13470459 210.82727051 C-155.13927999 206.66844314 -155.13748294 202.5096405 -155.1343255 198.35081267 C-155.13177559 193.93466489 -155.13414918 189.51851909 -155.13571167 185.10237122 C-155.13753694 177.62268707 -155.13512939 170.14301273 -155.13037109 162.66333008 C-155.12562452 155.11840157 -155.12546271 147.57349286 -155.13037109 140.02856445 C-155.15962517 94.00882906 -154.94276315 48.01110908 -154 2 C-153.26670345 1.99576806 -152.53340691 1.99153612 -151.77788925 1.98717594 C-133.94275452 1.88391271 -116.10765991 1.77528142 -98.27259445 1.66066074 C-89.64772647 1.605361 -81.02285434 1.55188432 -72.39794922 1.50268555 C-64.88129616 1.45980393 -57.36467315 1.41351588 -49.84806657 1.36312145 C-45.86736643 1.33655258 -41.88667214 1.3117003 -37.90593719 1.29092598 C-34.15986781 1.27132252 -30.41385545 1.24716767 -26.66783714 1.21950912 C-25.29240392 1.21015833 -23.91695819 1.20247599 -22.54150581 1.19658089 C-20.66426234 1.18828627 -18.78705132 1.17342086 -16.90985107 1.15821838 C-15.85900707 1.15176583 -14.80816307 1.14531328 -13.72547531 1.1386652 C-9.0308159 0.89981296 -4.79671989 -0.09224461 0 0 Z " fill="#1E3A67" transform="translate(314,276)"/>
<path d="M0 0 C0.66 0 1.32 0 2 0 C3.91015625 2.265625 3.91015625 2.265625 6.0625 5.25 C6.77535156 6.22453125 7.48820312 7.1990625 8.22265625 8.203125 C9.75415249 10.61312787 10.56996146 12.22128943 11 15 C11.66 15 12.32 15 13 15 C15.22864026 18.9571717 17.45592519 22.91508501 19.6796875 26.875 C20.9693732 29.17099218 22.26445981 31.4631336 23.5703125 33.75 C24.74472151 35.81814166 25.88039802 37.90178296 27 40 C27.36867188 40.65226562 27.73734375 41.30453125 28.1171875 41.9765625 C30.9746282 47.54544328 31.74711987 53.16246052 32.31713867 59.32836914 C32.69064328 63.24562429 33.43326305 66.40277197 35 70 C35.165 71.19625 35.33 72.3925 35.5 73.625 C35.77264043 77.12130077 35.77264043 77.12130077 38 80 C39.38142076 88.21033093 39.12044721 96.7025257 39 105 C28.98986774 105.98822444 18.97692398 106.92676764 8.953125 107.765625 C8.17060867 107.83138229 7.38809235 107.89713959 6.5818634 107.96488953 C2.63327963 108.29634802 -1.31556667 108.62403897 -5.26489258 108.9465332 C-6.74040789 109.06969549 -8.21591291 109.19298111 -9.69140625 109.31640625 C-11.00310791 109.42412354 -12.31480957 109.53184082 -13.66625977 109.64282227 C-16.24517607 109.91912798 -18.51476788 110.32431305 -21 111 C-22.74886981 111.06624507 -24.50002748 111.08552595 -26.25 111.0625 C-27.58804688 111.04896484 -27.58804688 111.04896484 -28.953125 111.03515625 C-29.62859375 111.02355469 -30.3040625 111.01195312 -31 111 C-31.27263672 109.40671875 -31.27263672 109.40671875 -31.55078125 107.78125 C-32.06424268 104.86184516 -32.59389983 101.94630965 -33.15234375 99.03515625 C-33.28116943 98.36105713 -33.40999512 97.68695801 -33.54272461 96.99243164 C-34.16452454 94.28313682 -35.03693903 91.73159113 -36.125 89.17578125 C-37.12339191 86.6931728 -37.92765772 84.16351281 -38.73828125 81.61450195 C-42.0750517 71.18837374 -46.57641083 62.35864985 -52.64453125 53.25 C-54 51 -54 51 -54 49 C-54.66 49 -55.32 49 -56 49 C-57.2890625 47.46875 -57.2890625 47.46875 -58.625 45.5 C-59.07101562 44.8503125 -59.51703125 44.200625 -59.9765625 43.53125 C-60.31429688 43.0259375 -60.65203125 42.520625 -61 42 C-57.88801935 43.49836105 -54.9465385 45.19933758 -52 47 C-50.88625 46.34 -49.7725 45.68 -48.625 45 C-45.25 43 -45.25 43 -43 43 C-43 42.34 -43 41.68 -43 41 C-41.1762979 39.4979541 -39.28886233 38.07283831 -37.375 36.6875 C-32.53717136 33.17576655 -32.53717136 33.17576655 -27.875 29.4375 C-25.18793383 27.1593352 -22.4809921 24.91275283 -19.75 22.6875 C-18.89921875 21.99011719 -18.0484375 21.29273437 -17.171875 20.57421875 C-15 19 -15 19 -13 19 C-12.505 17.515 -12.505 17.515 -12 16 C-7.66666667 13 -7.66666667 13 -5 13 C-4.79375 12.401875 -4.5875 11.80375 -4.375 11.1875 C-2.49073918 8.18981233 -0.18867916 7.38638224 3 6 C2.34 5.34 1.68 4.68 1 4 C0.375 1.875 0.375 1.875 0 0 Z " fill="#328CB8" transform="translate(409,69)"/>
<path d="M0 0 C0.88852689 2.94213056 1.0244202 5.14033387 0.59685421 8.17512226 C-1.64908248 25.86579968 -1.16610177 43.91994353 -1.20060861 61.71573198 C-1.20875018 65.36980512 -1.22239854 69.02385869 -1.23532104 72.67791748 C-1.25689262 78.98324265 -1.27510575 85.28857 -1.29092598 91.59391212 C-1.31380337 100.70996757 -1.34191957 109.82600119 -1.37124526 118.9420379 C-1.41870465 133.73828573 -1.46202625 148.53454258 -1.50268555 163.33081055 C-1.54215152 177.68954162 -1.58360363 192.04826474 -1.62768555 206.40698242 C-1.63177196 207.73837415 -1.63177196 207.73837415 -1.63594092 209.09666268 C-1.64962222 213.55021676 -1.66334213 218.00377072 -1.67708123 222.45732462 C-1.79070513 259.30486734 -1.89681525 296.15242628 -2 333 C20.77 333 43.54 333 67 333 C66.505 329.535 66.505 329.535 66 326 C65.9143761 323.45535331 65.87795876 320.90877237 65.87974548 318.36268616 C65.87889106 317.62574931 65.87803663 316.88881246 65.87715632 316.1295442 C65.87551843 313.67756472 65.880995 311.22565474 65.88647461 308.77368164 C65.88675687 307.00912477 65.88659798 305.24456779 65.8860321 303.48001099 C65.88574566 298.70164194 65.89161775 293.92329809 65.89860606 289.14493489 C65.90486499 284.14679038 65.90544541 279.14864526 65.90663147 274.15049744 C65.9097373 264.69112013 65.9179406 255.23175441 65.92798096 245.7723822 C65.93916533 235.00096326 65.94465841 224.22954377 65.94967639 213.45812047 C65.96012384 191.30540718 65.97770879 169.15270432 66 147 C68.40336976 150.60505464 68.2747886 153.18482206 68.24050903 157.34611511 C68.24221788 158.10005202 68.24392673 158.85398893 68.24568737 159.63077241 C68.24898916 162.16434448 68.23796731 164.69765339 68.22705078 167.23120117 C68.22648682 169.04442844 68.22680294 170.85765617 68.22793579 172.67088318 C68.22851088 177.60034019 68.21673135 182.52970036 68.20278788 187.45913482 C68.19030648 192.6081123 68.18911207 197.75709187 68.18673706 202.90608215 C68.18051466 212.65956111 68.16409357 222.41299536 68.14403808 232.16645461 C68.12170271 243.26908783 68.1106916 254.37172314 68.10064721 265.47437322 C68.079728 288.31627362 68.04453727 311.15813431 68 334 C58.76002448 334.02312524 49.52005886 334.04091601 40.28006077 334.05181217 C35.99000085 334.05704061 31.69996067 334.06413753 27.40991211 334.07543945 C23.273206 334.08626975 19.13651892 334.09227714 14.99979973 334.09487724 C13.41807696 334.09673124 11.83635529 334.10035136 10.25464058 334.10573006 C8.04677162 334.1129424 5.83898227 334.11399086 3.63110352 334.11352539 C2.37201675 334.115746 1.11292999 334.11796661 -0.18431091 334.12025452 C-3 334 -3 334 -4 333 C-4.10901823 331.05401917 -4.14690928 329.1040439 -4.15821838 327.15504456 C-4.16800815 325.87984074 -4.17779791 324.60463692 -4.18788433 323.29079056 C-4.19379468 321.85995778 -4.19960374 320.42912458 -4.20532227 318.99829102 C-4.21489773 317.4961915 -4.22489948 315.99409464 -4.2352953 314.49200058 C-4.26253649 310.36574296 -4.28346532 306.23947375 -4.30328512 302.11317468 C-4.3253799 297.71940636 -4.3529873 293.32567218 -4.37979126 288.93193054 C-4.43651524 279.44238449 -4.4855066 269.952808 -4.5328331 260.46321106 C-4.56219015 254.58439463 -4.59329786 248.70558823 -4.62466431 242.82678223 C-4.76315595 216.75114805 -4.88388816 190.67545924 -4.9894619 164.59967136 C-4.99967771 162.07950624 -5.01000067 159.55934157 -5.02033997 157.03917694 C-5.09338575 139.1463214 -5.15145348 121.25356367 -5.17623901 103.36056519 C-5.18276108 98.67591323 -5.19354301 93.99130428 -5.20828247 89.30667114 C-5.40180199 24.23608493 -5.40180199 24.23608493 0 0 Z " fill="#234C61" transform="translate(32,173)"/>
<path d="M0 0 C0.33 0 0.66 0 1 0 C0.96970703 0.590728 0.93941406 1.18145599 0.90820312 1.79008484 C-0.03527554 20.81716919 -0.08642333 39.81048848 0.01037598 58.85375977 C0.0856471 73.95514193 0.08109557 89.0290283 -0.42666638 104.12301779 C-1.11672729 125.15139459 -1.13225082 146.17145427 -1.10139394 167.20899296 C-1.0950065 172.32574888 -1.09454476 177.44250585 -1.09336853 182.55926514 C-1.09029944 192.18413178 -1.08214779 201.80898662 -1.07201904 211.43384814 C-1.06071786 222.41875289 -1.05531271 233.4036583 -1.05032361 244.38856745 C-1.03995974 266.92571961 -1.02167161 289.46285568 -1 312 C-23.77 312 -46.54 312 -70 312 C-70 213.33 -70 114.66 -70 13 C-69.67 13 -69.34 13 -69 13 C-68.84957758 49.82511137 -68.70454721 86.65024021 -68.5667524 123.47540108 C-68.55048133 127.82254943 -68.5341656 132.16969762 -68.51782227 136.5168457 C-68.51294288 137.81500887 -68.51294288 137.81500887 -68.50796492 139.13939755 C-68.4551815 153.15411009 -68.39877977 167.16880585 -68.3410418 181.18349875 C-68.28188168 195.56292699 -68.22660778 209.94236638 -68.17494446 224.32182354 C-68.14294069 233.19531995 -68.10790261 242.06879374 -68.06898809 250.94226258 C-68.04259645 257.02640759 -68.0199783 263.11055932 -68.00032883 269.19472981 C-67.98887927 272.70540126 -67.97576472 276.21604572 -67.95816994 279.7266922 C-67.93995607 283.53402783 -67.928039 287.3413329 -67.91770935 291.1486969 C-67.91090556 292.25668202 -67.90410177 293.36466713 -67.89709181 294.50622755 C-67.89559946 295.53034961 -67.89410711 296.55447167 -67.89256954 297.60962772 C-67.88915206 298.48792085 -67.88573458 299.36621397 -67.88221353 300.27112204 C-68.02297906 303.5323791 -68.53835918 306.76851423 -69 310 C-48.21 310 -27.42 310 -6 310 C-6.26103516 301.72421875 -6.26103516 301.72421875 -6.52734375 293.28125 C-7.18738227 269.14776117 -6.91459877 245.03441575 -6.60510254 220.8972168 C-6.53277238 215.12945616 -6.46896199 209.36160077 -6.40429688 203.59375 C-6.2775657 192.39572924 -6.14188644 181.19783832 -6 170 C-5.67 170 -5.34 170 -5 170 C-4.67 203 -4.34 236 -4 270 C-3.93941406 257.76679688 -3.87882812 245.53359375 -3.81640625 232.9296875 C-3.77571998 224.99088353 -3.73487611 217.05208085 -3.69335938 209.11328125 C-3.62806879 196.62321772 -3.56328939 184.13315368 -3.50268555 171.64306641 C-3.29828771 129.64871868 -3.06149568 87.6551837 -2.55786014 45.66319132 C-2.52748755 43.08253035 -2.4988667 40.50185525 -2.47070503 37.92116928 C-2.42692658 33.94172744 -2.37809208 29.96238164 -2.32490849 25.98305464 C-2.30621955 24.53334795 -2.28915451 23.08361931 -2.27380061 21.63387346 C-2.25263578 19.67326937 -2.22472592 17.71274144 -2.19639587 15.75222778 C-2.18254821 14.65796541 -2.16870054 13.56370304 -2.15443325 12.4362812 C-2 10 -2 10 -1 9 C-0.76807135 7.48530552 -0.58784762 5.96245438 -0.4375 4.4375 C-0.31181641 3.19806641 -0.31181641 3.19806641 -0.18359375 1.93359375 C-0.12300781 1.29550781 -0.06242187 0.65742188 0 0 Z " fill="#4494C0" transform="translate(100,194)"/>
<path d="M0 0 C0.33 0 0.66 0 1 0 C1 76.23 1 152.46 1 231 C35.29802353 233.47108662 35.29802353 233.47108662 68 228 C67.99555878 226.78749573 67.99111755 225.57499146 67.98654175 224.32574463 C67.94514546 212.62790433 67.91562309 200.93007972 67.89637566 189.23218155 C67.88614645 183.22506805 67.8723954 177.21801575 67.84912109 171.2109375 C67.72165589 137.42285252 68.42049492 103.7522002 70 70 C70.66 70.33 71.32 70.66 72 71 C72.02360461 80.20884746 72.04115173 89.41768388 72.05181217 98.62655544 C72.05693931 102.90672848 72.06384095 107.18688023 72.07543945 111.46704102 C72.12283061 129.42662471 72.04893428 147.3577123 71.42497444 165.30766487 C70.95033226 179.0021818 70.91383075 192.67408846 71 206.375 C71.02664141 210.82030918 71.04646086 215.26557909 71.0625 219.7109375 C71.07494751 221.20577164 71.07494751 221.20577164 71.08764648 222.73080444 C71.09094971 223.64512238 71.09425293 224.55944031 71.09765625 225.50146484 C71.10289307 226.30127777 71.10812988 227.1010907 71.11352539 227.92514038 C71 230 71 230 70 233 C35.35 232.505 35.35 232.505 0 232 C-0.92918595 228.2832562 -1.12571733 225.47842495 -1.12698364 221.67887878 C-1.12980347 220.37608978 -1.13262329 219.07330078 -1.13552856 217.73103333 C-1.13358365 216.28707872 -1.13153544 214.84312425 -1.12939453 213.39916992 C-1.13075036 211.87520303 -1.13253132 210.35123646 -1.13470459 208.82727051 C-1.13927999 204.66844314 -1.13748294 200.5096405 -1.1343255 196.35081267 C-1.13177559 191.93466489 -1.13414918 187.51851909 -1.13571167 183.10237122 C-1.13753694 175.62268707 -1.13512939 168.14301273 -1.13037109 160.66333008 C-1.12562452 153.11840157 -1.12546271 145.57349286 -1.13037109 138.02856445 C-1.15962517 92.00882906 -0.94276315 46.01110908 0 0 Z " fill="#0F1C37" transform="translate(160,278)"/>
<path d="M0 0 C0.33 0 0.66 0 1 0 C0.96970703 0.590728 0.93941406 1.18145599 0.90820312 1.79008484 C-0.03527554 20.81716919 -0.08642333 39.81048848 0.01037598 58.85375977 C0.08651491 74.12924812 0.07561274 89.38284013 -0.41409218 104.65113401 C-0.9843527 122.67652893 -1.20411662 140.69470891 -1.30332303 158.72797108 C-1.32585401 162.66760383 -1.35290033 166.60720613 -1.37937927 170.54681396 C-1.42843237 177.94045205 -1.47367851 185.33410783 -1.51740164 192.72777915 C-1.56754293 201.17345538 -1.62216467 209.61910101 -1.67708123 218.06474733 C-1.78955197 235.37646965 -1.89666112 252.6882208 -2 270 C-2.33 270 -2.66 270 -3 270 C-3.02382258 247.61726585 -3.04121255 225.23453391 -3.05181217 202.85178947 C-3.05687408 192.44887735 -3.06374299 182.04597336 -3.07543945 171.64306641 C-3.12162421 129.647719 -3.10770709 87.65597162 -2.59018397 45.66319132 C-2.5587426 43.08252977 -2.52893159 40.5018534 -2.49940681 37.92116928 C-2.45322259 33.94171386 -2.40144227 29.96237268 -2.344661 25.98305464 C-2.32453499 24.53334858 -2.30595563 23.08362014 -2.28900599 21.63387346 C-2.26552775 19.67326231 -2.23514415 17.71273737 -2.20433044 15.75222778 C-2.18897468 14.65796541 -2.17361891 13.56370304 -2.15779781 12.4362812 C-2 10 -2 10 -1 9 C-0.76807135 7.48530552 -0.58784762 5.96245438 -0.4375 4.4375 C-0.35371094 3.61121094 -0.26992187 2.78492188 -0.18359375 1.93359375 C-0.12300781 1.29550781 -0.06242187 0.65742188 0 0 Z " fill="#4788A7" transform="translate(100,194)"/>
<path d="M0 0 C0.66 0.33 1.32 0.66 2 1 C0.6875 2.5 0.6875 2.5 -1 4 C-1.99 4 -2.98 4 -4 4 C-4.33 4.99 -4.66 5.98 -5 7 C-5.99 7 -6.98 7 -8 7 C-8.268125 7.804375 -8.53625 8.60875 -8.8125 9.4375 C-9.204375 10.283125 -9.59625 11.12875 -10 12 C-10.99 12.33 -11.98 12.66 -13 13 C-13.598125 13.969375 -14.19625 14.93875 -14.8125 15.9375 C-17.40335871 19.56470219 -18.87447059 19.71077206 -23 21 C-25.22816986 23.53442406 -25.22816986 23.53442406 -27 26 C-27.66 26 -28.32 26 -29 26 C-29 26.66 -29 27.32 -29 28 C-32.32703078 31.91415386 -35.02639643 33.72768281 -40 35 C-40.061875 35.721875 -40.12375 36.44375 -40.1875 37.1875 C-41.24665507 40.85380599 -43.23474962 42.44214339 -46 45 C-46.33 45.66 -46.66 46.32 -47 47 C-47.99 47 -48.98 47 -50 47 C-50 47.99 -50 48.98 -50 50 C-49.34 50 -48.68 50 -48 50 C-48 50.66 -48 51.32 -48 52 C-49.485 52.495 -49.485 52.495 -51 53 C-52.22445284 54.62948064 -52.22445284 54.62948064 -53.1875 56.5625 C-54.0846875 58.2640625 -54.0846875 58.2640625 -55 60 C-55.33 59.34 -55.66 58.68 -56 58 C-57.32 58 -58.64 58 -60 58 C-58.61624869 54.16009012 -56.83690651 51.02947436 -54.5 47.6875 C-53.8915625 46.80449219 -53.283125 45.92148438 -52.65625 45.01171875 C-52.1096875 44.34785156 -51.563125 43.68398437 -51 43 C-50.34 43 -49.68 43 -49 43 C-48.77570313 42.45988281 -48.55140625 41.91976562 -48.3203125 41.36328125 C-46.58237686 38.25247928 -44.28965717 35.77740466 -41.875 33.1875 C-41.38652588 32.65995117 -40.89805176 32.13240234 -40.39477539 31.58886719 C-36.53851507 27.47333597 -32.60915782 23.28070381 -28 20 C-27.34 20 -26.68 20 -26 20 C-26 19.34 -26 18.68 -26 18 C-25.34 18 -24.68 18 -24 18 C-24 17.34 -24 16.68 -24 16 C-22.1640625 14.51953125 -22.1640625 14.51953125 -19.625 12.8125 C-18.26375 11.88824219 -18.26375 11.88824219 -16.875 10.9453125 C-15.92625 10.30335937 -14.9775 9.66140625 -14 9 C-11.40556788 7.1647341 -8.81568404 5.32321487 -6.2265625 3.48046875 C-4.1832724 2.12186007 -2.277225 0.91573516 0 0 Z " fill="#3C85A2" transform="translate(122,44)"/>
<path d="M0 0 C1.08060196 -0.00335861 2.16120392 -0.00671722 3.27455139 -0.01017761 C6.82513596 -0.01963185 10.37567318 -0.0216273 13.92626953 -0.02270508 C16.39869201 -0.02591925 18.8711143 -0.02928345 21.34353638 -0.03279114 C26.51304567 -0.03876691 31.68253828 -0.04063241 36.85205078 -0.04003906 C43.49024693 -0.03993701 50.12833715 -0.05364042 56.7665081 -0.07081127 C61.86555478 -0.08189743 66.96457546 -0.08395939 72.06363297 -0.08342934 C74.51255792 -0.0846126 76.96148347 -0.08905363 79.41039658 -0.0967617 C82.82185213 -0.10650217 86.23307233 -0.10370821 89.64453125 -0.09765625 C90.66270432 -0.10327576 91.68087738 -0.10889526 92.72990417 -0.11468506 C94.1176429 -0.10839333 94.1176429 -0.10839333 95.53341675 -0.10197449 C96.33973478 -0.10251925 97.14605282 -0.10306402 97.97680473 -0.1036253 C99.93408203 0.14526367 99.93408203 0.14526367 101.93408203 2.14526367 C101.27408203 2.14526367 100.61408203 2.14526367 99.93408203 2.14526367 C99.93408203 2.80526367 99.93408203 3.46526367 99.93408203 4.14526367 C98.83252274 3.98293243 97.73096344 3.8206012 96.59602356 3.65335083 C91.50626793 3.02124399 86.4659685 3.00504111 81.34301758 3.01586914 C80.31278976 3.01411682 79.28256195 3.0123645 78.22111511 3.01055908 C74.83765955 3.00618045 71.45425681 3.00906339 68.07080078 3.01245117 C65.71287526 3.01177725 63.35494982 3.01080648 60.99702454 3.009552 C56.06710139 3.00808066 51.13719642 3.01021245 46.20727539 3.01489258 C39.88084572 3.02060521 33.55445834 3.01729761 27.2280302 3.01132011 C22.36484964 3.00771266 17.50167917 3.00885367 12.63849831 3.01144791 C10.30483813 3.01211585 7.97117704 3.01129336 5.63751793 3.00896835 C2.38437837 3.00643714 -0.8686918 3.01028841 -4.12182617 3.01586914 C-5.57356232 3.01283279 -5.57356232 3.01283279 -7.05462646 3.00973511 C-7.93908951 3.01255493 -8.82355255 3.01537476 -9.7348175 3.01828003 C-10.50334203 3.01865705 -11.27186655 3.01903408 -12.0636797 3.01942253 C-14.27472004 3.07258798 -14.27472004 3.07258798 -17.06591797 4.14526367 C-17.72591797 3.15526367 -18.38591797 2.16526367 -19.06591797 1.14526367 C-12.67565134 0.19703037 -6.45477519 -0.00290769 0 0 Z " fill="#63C9E7" transform="translate(214.06591796875,18.854736328125)"/>
<path d="M0 0 C0.969375 0.185625 1.93875 0.37125 2.9375 0.5625 C7.38413206 1.21856047 11.58084983 0.65134866 16 0 C13.48780099 2.51219901 11.69315898 2.71201337 8.25 3.5 C5.05899517 4.2541686 1.98053645 5.00661761 -1.125 6.0625 C-9.19664057 8.69455671 -17.28859036 9.37053195 -25.73046875 9.6171875 C-26.84850388 9.65472137 -27.966539 9.69225525 -29.11845398 9.73092651 C-41.56588266 10.11054923 -54.01475391 10.15112358 -66.46704102 10.13037109 C-70.38236175 10.12490242 -74.29757286 10.13041428 -78.21289062 10.13671875 C-80.72135442 10.1360596 -83.22981814 10.13478185 -85.73828125 10.1328125 C-87.48024529 10.13584885 -87.48024529 10.13584885 -89.25740051 10.13894653 C-90.33430649 10.13579437 -91.41121246 10.13264221 -92.52075195 10.12939453 C-93.46159134 10.12859894 -94.40243073 10.12780334 -95.3717804 10.12698364 C-98.00685204 9.99966894 -100.43117463 9.58568281 -103 9 C-103 8.67 -103 8.34 -103 8 C-101.4071946 7.9845388 -101.4071946 7.9845388 -99.7822113 7.96876526 C-89.76264205 7.87090092 -79.74313308 7.76815488 -69.72366238 7.66066074 C-64.57287607 7.60555646 -59.42208397 7.55215687 -54.27124023 7.50268555 C-49.2980428 7.45485717 -44.32491139 7.40250849 -39.35179329 7.34705925 C-37.45686557 7.32671915 -35.56191979 7.30799272 -33.66695976 7.29092598 C-31.00764338 7.2666963 -28.34844972 7.23666841 -25.68920898 7.20532227 C-24.52071411 7.19668907 -24.52071411 7.19668907 -23.32861328 7.18788147 C-14.98263885 7.48651395 -14.98263885 7.48651395 -8 4 C-6.824375 3.67 -5.64875 3.34 -4.4375 3 C-3.303125 2.67 -2.16875 2.34 -1 2 C-0.67 1.34 -0.34 0.68 0 0 Z " fill="#142D3F" transform="translate(335,339)"/>
<path d="M0 0 C0.33 0 0.66 0 1 0 C1.02531626 7.20824434 1.04285262 14.41647725 1.05493164 21.62475586 C1.0599662 24.07788522 1.06679424 26.53101157 1.07543945 28.98413086 C1.08754332 32.5063552 1.09323703 36.02853994 1.09765625 39.55078125 C1.10281754 40.65086014 1.10797882 41.75093903 1.11329651 42.88435364 C1.11337204 43.90518539 1.11344757 44.92601715 1.11352539 45.9777832 C1.115746 46.87713089 1.11796661 47.77647858 1.12025452 48.70307922 C1 51 1 51 0 54 C-20.46 53.67 -40.92 53.34 -62 53 C-62 52.67 -62 52.34 -62 52 C-61.32205887 51.99191315 -60.64411774 51.98382629 -59.94563293 51.97549438 C-52.88893896 51.88943038 -45.83252528 51.78992552 -38.77612305 51.68261719 C-36.14270739 51.64433655 -33.50923962 51.60948211 -30.87573242 51.578125 C-27.09014254 51.5324553 -23.30491122 51.47446274 -19.51953125 51.4140625 C-18.34227982 51.40251129 -17.16502838 51.39096008 -15.95210266 51.37905884 C-14.85133896 51.35918915 -13.75057526 51.33931946 -12.61645508 51.31884766 C-11.65048904 51.30552399 -10.68452301 51.29220032 -9.68928528 51.2784729 C-6.81504766 50.98084836 -4.61856302 50.19423654 -2 49 C-1.15893404 43.06165528 -0.80066908 37.24324092 -0.68359375 31.25 C-0.66281265 30.35128174 -0.64203156 29.45256348 -0.62062073 28.52661133 C-0.55576947 25.68447764 -0.49654304 22.84225967 -0.4375 20 C-0.39425335 18.06118956 -0.35063721 16.12238732 -0.30664062 14.18359375 C-0.20015513 9.45581329 -0.09871053 4.72794893 0 0 Z " fill="#11152C" transform="translate(230,457)"/>
<path d="M0 0 C3.8682146 0.22104083 4.91745114 0.91155479 7.625 3.8125 C8.40875 4.864375 9.1925 5.91625 10 7 C10.8971875 8.175625 10.8971875 8.175625 11.8125 9.375 C12.204375 9.91125 12.59625 10.4475 13 11 C12.18595703 11.48919922 12.18595703 11.48919922 11.35546875 11.98828125 C10.28232422 12.64376953 10.28232422 12.64376953 9.1875 13.3125 C8.47980469 13.74175781 7.77210938 14.17101562 7.04296875 14.61328125 C4.97805327 15.91662694 4.97805327 15.91662694 3.42578125 17.60546875 C2 19 2 19 -1 20 C-0.690625 19.401875 -0.38125 18.80375 -0.0625 18.1875 C1.65437636 14.65275455 2.29293914 11.90585523 2 8 C1.34 7.01 0.68 6.02 0 5 C-0.125 2.3125 -0.125 2.3125 0 0 Z " fill="#57C6EB" transform="translate(400,64)"/>
<path d="M0 0 C0 0.66 0 1.32 0 2 C0.99 2.33 1.98 2.66 3 3 C0.09399739 4.25664978 -1.79604584 5 -5 5 C-5.33 5.66 -5.66 6.32 -6 7 C-6.99 7.33 -7.98 7.66 -9 8 C-9.99 9.485 -9.99 9.485 -11 11 C-11.99 11 -12.98 11 -14 11 C-15.0260734 12.31337396 -16.02727325 13.64664105 -17 15 C-17.66 15 -18.32 15 -19 15 C-18.67 13.35 -18.34 11.7 -18 10 C-19.32 10.33 -20.64 10.66 -22 11 C-20.72485508 8.44971017 -19.59658703 8.06918289 -17 7 C-16.01 7 -15.02 7 -14 7 C-14 6.34 -14 5.68 -14 5 C-12.23244474 4.15973604 -10.46082737 3.32801278 -8.6875 2.5 C-7.70136719 2.0359375 -6.71523437 1.571875 -5.69921875 1.09375 C-3 0 -3 0 0 0 Z " fill="#449DBD" transform="translate(146,33)"/>
<path d="M0 0 C0.66 0.33 1.32 0.66 2 1 C-7.41659671 8.13838783 -17.50529897 14.00582756 -29 17 C-28.505 15.515 -28.505 15.515 -28 14 C-27.01 14 -26.02 14 -25 14 C-24.67 13.01 -24.34 12.02 -24 11 C-21.99878825 8.63493157 -21.03200339 8.0106678 -18 7 C-16.00038436 6.96079185 -13.99950636 6.95556653 -12 7 C-12 6.34 -12 5.68 -12 5 C-11.38511719 4.80664062 -10.77023437 4.61328125 -10.13671875 4.4140625 C-9.32847656 4.15367187 -8.52023437 3.89328125 -7.6875 3.625 C-6.88699219 3.36976563 -6.08648437 3.11453125 -5.26171875 2.8515625 C-2.77275472 2.01168189 -2.77275472 2.01168189 0 0 Z " fill="#1F4867" transform="translate(381,322)"/>
<path d="M0 0 C0 4.0333534 -1.60879918 5.83517538 -4 9 C-4.66 9 -5.32 9 -6 9 C-6.26167969 9.5775 -6.52335937 10.155 -6.79296875 10.75 C-9.84759401 16.44405873 -14.81566853 21.22957712 -20 25 C-20.66 24.67 -21.32 24.34 -22 24 C-20.625 21.5 -20.625 21.5 -19 19 C-18.34 19 -17.68 19 -17 19 C-16.67 18.01 -16.34 17.02 -16 16 C-15.05125 15.484375 -14.1025 14.96875 -13.125 14.4375 C-9.62961146 11.71109694 -9.50279588 10.98509833 -8.5625 6.875 C-7.45614062 2.28765625 -7.45614062 2.28765625 -5.265625 0.90625 C-3.3125 0.375 -3.3125 0.375 0 0 Z " fill="#235577" transform="translate(417,287)"/>
<path d="M0 0 C5.40106771 0.57742836 10.01336319 1.90530819 15.0625 3.875 C15.74376953 4.13152344 16.42503906 4.38804688 17.12695312 4.65234375 C21.21259402 6.21438513 25.11570907 7.97604809 29 10 C26.32929757 11.33535122 25.06908028 10.72349218 22.1875 10.0625 C19.49325196 9.44702125 17.24432315 8.98903193 14.4765625 9.11328125 C11.30883618 8.96838525 9.77495941 7.91862858 7.1875 6.125 C6.39730469 5.59132813 5.60710937 5.05765625 4.79296875 4.5078125 C3.90544922 3.76144531 3.90544922 3.76144531 3 3 C3 2.34 3 1.68 3 1 C2.01 0.67 1.02 0.34 0 0 Z " fill="#479AB0" transform="translate(333,22)"/>
<path d="M0 0 C0.969375 0.185625 1.93875 0.37125 2.9375 0.5625 C7.38413206 1.21856047 11.58084983 0.65134866 16 0 C13.48780099 2.51219901 11.69315898 2.71201337 8.25 3.5 C5.05899517 4.2541686 1.98053645 5.00661761 -1.125 6.0625 C-9.42286423 8.76832529 -17.30784123 9.26882965 -26 9 C-26 8.67 -26 8.34 -26 8 C-24.86820312 7.87882812 -23.73640625 7.75765625 -22.5703125 7.6328125 C-21.08848969 7.46399724 -19.60672158 7.29470145 -18.125 7.125 C-17.37863281 7.04636719 -16.63226563 6.96773438 -15.86328125 6.88671875 C-11.47444593 6.4919231 -11.47444593 6.4919231 -8 4 C-6.2365625 3.505 -6.2365625 3.505 -4.4375 3 C-3.303125 2.67 -2.16875 2.34 -1 2 C-0.67 1.34 -0.34 0.68 0 0 Z " fill="#183C55" transform="translate(335,339)"/>
<path d="M0 0 C2.83666737 2.83666737 3.43462582 6.23482056 4.5 10 C4.83100708 11.15640991 4.83100708 11.15640991 5.16870117 12.33618164 C7.71874544 21.37672964 9.36152089 29.56028796 9 39 C8.67 39 8.34 39 8 39 C7.94392578 38.07767578 7.94392578 38.07767578 7.88671875 37.13671875 C7.82097656 36.32847656 7.75523437 35.52023438 7.6875 34.6875 C7.60048828 33.48673828 7.60048828 33.48673828 7.51171875 32.26171875 C7.20791555 29.9362036 7.20791555 29.9362036 5.52734375 28.62109375 C3.20694955 26.15827126 3.27780076 23.67796622 2.875 20.375 C2.70212343 16.36543864 2.70212343 16.36543864 1 13 C0.76518307 10.81707226 0.58636677 8.62796826 0.4375 6.4375 C0.35371094 5.23996094 0.26992188 4.04242188 0.18359375 2.80859375 C0.12300781 1.88175781 0.06242187 0.95492187 0 0 Z " fill="#1F4B5E" transform="translate(440,121)"/>
<path d="M0 0 C2.31254769 1.11344889 4.29826181 2.21977186 6.375 3.75 C9.04260911 5.35983033 9.04260911 5.35983033 12.3125 4.1875 C13.199375 3.795625 14.08625 3.40375 15 3 C14.67 3.66 14.34 4.32 14 5 C13.01 5.33 12.02 5.66 11 6 C10.26676204 8.01508358 10.26676204 8.01508358 10 10 C10.99 10.33 11.98 10.66 13 11 C13 11.66 13 12.32 13 13 C13.66 13 14.32 13 15 13 C15.309375 13.804375 15.61875 14.60875 15.9375 15.4375 C16.76335345 17.89080405 16.76335345 17.89080405 18 19 C18.04080783 20.99958364 18.04254356 23.00045254 18 25 C15.05966118 22.40240006 13.32326658 19.3825224 11.375 16 C10.76398438 14.948125 10.15296875 13.89625 9.5234375 12.8125 C8 10 8 10 7 7 C6.34 7 5.68 7 5 7 C3.7109375 5.46875 3.7109375 5.46875 2.375 3.5 C1.70597656 2.52546875 1.70597656 2.52546875 1.0234375 1.53125 C0.68570312 1.0259375 0.34796875 0.520625 0 0 Z " fill="#27566D" transform="translate(348,111)"/>
<path d="M0 0 C-0.66 0 -1.32 0 -2 0 C-1.67 0.99 -1.34 1.98 -1 3 C-1.66 3.66 -2.32 4.32 -3 5 C-5 5 -7 5 -9 5 C-9.58523437 5.31710938 -10.17046875 5.63421875 -10.7734375 5.9609375 C-13.77189562 7.36021795 -16.45858356 7.42751501 -19.75 7.625 C-20.92046875 7.69976562 -22.0909375 7.77453125 -23.296875 7.8515625 C-24.18890625 7.90054688 -25.0809375 7.94953125 -26 8 C-25 6 -25 6 -22.85546875 5.21875 C-21.97503906 4.9815625 -21.09460938 4.744375 -20.1875 4.5 C-16.88874377 3.60343996 -14.04071461 2.54497848 -11 1 C-9.65952168 0.56003495 -8.30417223 0.16272622 -6.9375 -0.1875 C-6.26589844 -0.36667969 -5.59429687 -0.54585937 -4.90234375 -0.73046875 C-3 -1 -3 -1 0 0 Z " fill="#478EA8" transform="translate(172,25)"/>
<path d="M0 0 C4.42761914 1.39153744 6.9556255 3.52071486 10 7 C10 7.66 10 8.32 10 9 C10.598125 9.268125 11.19625 9.53625 11.8125 9.8125 C13.97224808 10.98493467 15.35790256 12.19369282 17 14 C16.67 14.66 16.34 15.32 16 16 C15.46375 15.38125 14.9275 14.7625 14.375 14.125 C10.91182134 11.02636647 7.61730205 10 3 10 C2.51171875 7.98177083 2.0234375 5.96354167 1.53515625 3.9453125 C1.05153008 1.9414343 1.05153008 1.9414343 0 0 Z " fill="#4293AE" transform="translate(392,53)"/>
<path d="M0 0 C2.31 0 4.62 0 7 0 C4.76659562 3.35010657 4.01813997 3.60046497 0.375 4.875 C-3.97680352 6.49588914 -7.60680486 8.4895911 -11.40625 11.14453125 C-12.19515625 11.56798828 -12.19515625 11.56798828 -13 12 C-13.66 11.67 -14.32 11.34 -15 11 C-14.34 9.02 -13.68 7.04 -13 5 C-12.21625 5.185625 -11.4325 5.37125 -10.625 5.5625 C-8.02910225 6.25962266 -8.02910225 6.25962266 -6 5 C-5.67 4.01 -5.34 3.02 -5 2 C-3.35 2 -1.7 2 0 2 C0 1.34 0 0.68 0 0 Z " fill="#3B87A2" transform="translate(172,95)"/>
<path d="M0 0 C1.32 0.66 2.64 1.32 4 2 C4 2.66 4 3.32 4 4 C4.99 4.33 5.98 4.66 7 5 C9 8 9 8 8.625 10.1875 C8.41875 10.785625 8.2125 11.38375 8 12 C6.35 12.33 4.7 12.66 3 13 C3 11.68 3 10.36 3 9 C1.68 8.34 0.36 7.68 -1 7 C-0.01 5.68 0.98 4.36 2 3 C1.34 2.01 0.68 1.02 0 0 Z " fill="#4AAACB" transform="translate(385,47)"/>
<path d="M0 0 C0.66 0.33 1.32 0.66 2 1 C1.030625 1.598125 0.06125 2.19625 -0.9375 2.8125 C-4.23052042 4.71127509 -4.23052042 4.71127509 -5 8 C-10.64955238 12.20711348 -15.08148745 12.50113974 -22 12 C-19.67173652 9.67173652 -18.05177347 9.24866997 -14.9375 8.25 C-9.31245331 6.29088083 -4.76746544 3.53145588 0 0 Z " fill="#173242" transform="translate(337,264)"/>
<path d="M0 0 C1.32 0 2.64 0 4 0 C2.63757574 3.06713244 1.10300295 5.11840293 -1.3125 7.4375 C-1.92867187 8.035625 -2.54484375 8.63375 -3.1796875 9.25 C-3.78039062 9.8275 -4.38109375 10.405 -5 11 C-5.98160543 11.97672182 -6.96112694 12.95554767 -7.9375 13.9375 C-8.618125 14.618125 -9.29875 15.29875 -10 16 C-9.71125 15.505 -9.4225 15.01 -9.125 14.5 C-7.58711584 11.08247965 -6.85152195 7.6493798 -6 4 C-4.35 3.67 -2.7 3.34 -1 3 C-0.67 2.01 -0.34 1.02 0 0 Z " fill="#215B70" transform="translate(135,121)"/>
<path d="M0 0 C3.00954366 3.67833115 4.42211982 7.43095516 6.03515625 11.85546875 C6.802355 14.16458809 6.802355 14.16458809 9 15 C10.09771253 19.29105809 9.92311745 22.69211856 9 27 C6.69528838 23.54293257 5.67016167 20.06099836 4.5 16.125 C2.84933833 10.59092771 2.84933833 10.59092771 0.84375 5.1796875 C0 3 0 3 0 0 Z " fill="#14384D" transform="translate(366,136)"/>
<path d="M0 0 C-0.125 1.75 -0.125 1.75 -1 4 C-2.97321053 5.3726682 -4.97543152 6.70427617 -7 8 C-7.7734375 9.11375 -7.7734375 9.11375 -8.5625 10.25 C-9.036875 10.8275 -9.51125 11.405 -10 12 C-12.6875 12.25 -12.6875 12.25 -15 12 C-14.6875 10.0625 -14.6875 10.0625 -14 8 C-13.01 7.67 -12.02 7.34 -11 7 C-10.67 6.34 -10.34 5.68 -10 5 C-8.35666496 3.96210419 -6.68756133 2.96432076 -5 2 C-2 0 -2 0 0 0 Z " fill="#5EC2E4" transform="translate(128,43)"/>
<path d="M0 0 C3.19191692 8.85919798 -2.96567681 21.59014994 -6 30 C-6.33 30 -6.66 30 -7 30 C-7.13743953 22.99058412 -6.37784395 18.28011911 -3.00390625 12.20703125 C-1.87568135 9.72669247 -1.36809079 7.42677859 -0.875 4.75 C-0.62363281 3.41195312 -0.62363281 3.41195312 -0.3671875 2.046875 C-0.24601562 1.37140625 -0.12484375 0.6959375 0 0 Z " fill="#133343" transform="translate(447,216)"/>
<path d="M0 0 C1.10793153 3.3237946 0.92757533 3.95439014 -0.14453125 7.1328125 C-0.54188477 8.34324219 -0.54188477 8.34324219 -0.94726562 9.578125 C-1.23279297 10.41859375 -1.51832031 11.2590625 -1.8125 12.125 C-3.90850092 18.37848039 -5.66693272 24.53624937 -7 31 C-7.33 31 -7.66 31 -8 31 C-8 27.04 -8 23.08 -8 19 C-7.34 18.67 -6.68 18.34 -6 18 C-5.16049423 16.17668813 -5.16049423 16.17668813 -4.4921875 13.96484375 C-4.22792969 13.15595703 -3.96367188 12.34707031 -3.69140625 11.51367188 C-3.42199219 10.66353516 -3.15257813 9.81339844 -2.875 8.9375 C-2.45927734 7.65649414 -2.45927734 7.65649414 -2.03515625 6.34960938 C-1.35002352 4.23514801 -0.67198166 2.1186703 0 0 Z " fill="#173E51" transform="translate(109,163)"/>
<path d="M0 0 C0.99 0.33 1.98 0.66 3 1 C3 1.99 3 2.98 3 4 C5.31 4.33 7.62 4.66 10 5 C10.33 5.99 10.66 6.98 11 8 C8.08274511 7.30065808 5.23635881 6.46191735 2.375 5.5625 C-2.6932015 4.02393883 -7.79142009 2.94197722 -13 2 C-13 1.67 -13 1.34 -13 1 C-11.71802734 1.01740234 -11.71802734 1.01740234 -10.41015625 1.03515625 C-8.75306641 1.04869141 -8.75306641 1.04869141 -7.0625 1.0625 C-5.40927734 1.07990234 -5.40927734 1.07990234 -3.72265625 1.09765625 C-1.08552366 1.31262571 -1.08552366 1.31262571 0 0 Z " fill="#2F6679" transform="translate(317,88)"/>
<path d="M0 0 C0.66 0 1.32 0 2 0 C3.91015625 2.265625 3.91015625 2.265625 6.0625 5.25 C6.77535156 6.22453125 7.48820312 7.1990625 8.22265625 8.203125 C9.75415249 10.61312787 10.56996146 12.22128943 11 15 C10.01 14.67 9.02 14.34 8 14 C6.8125 11.4375 6.8125 11.4375 6 9 C5.071875 9.33 4.14375 9.66 3.1875 10 C0 11 0 11 -3 11 C-1.02 9.35 0.96 7.7 3 6 C2.34 5.34 1.68 4.68 1 4 C0.375 1.875 0.375 1.875 0 0 Z " fill="#256C8C" transform="translate(409,69)"/>
<path d="M0 0 C3.40913084 3.02952741 5.08736714 5.85651142 6.8125 10.0625 C7.25207031 11.10535156 7.69164062 12.14820312 8.14453125 13.22265625 C9 16 9 16 8 19 C7.67 18.01 7.34 17.02 7 16 C6.01 15.67 5.02 15.34 4 15 C4 13.02 4 11.04 4 9 C3.01 8.67 2.02 8.34 1 8 C0.67 5.36 0.34 2.72 0 0 Z " fill="#234C60" transform="translate(431,102)"/>
<path d="M0 0 C-4.049191 4.83290538 -7.96719209 6.3833652 -14 8 C-14.66 7.34 -15.32 6.68 -16 6 C-13.69 5.34 -11.38 4.68 -9 4 C-9.33 3.01 -9.66 2.02 -10 1 C-6.78548731 -0.60725635 -3.56387464 -0.05748185 0 0 Z " fill="#56C1E8" transform="translate(156,32)"/>
<path d="M0 0 C3.3 0.33 6.6 0.66 10 1 C10.33 1.99 10.66 2.98 11 4 C12.32 4.66 13.64 5.32 15 6 C10.545 6.495 10.545 6.495 6 7 C5.67 5.68 5.34 4.36 5 3 C2.50965614 1.70339566 2.50965614 1.70339566 0 1 C0 0.67 0 0.34 0 0 Z " fill="#53B8D1" transform="translate(355,32)"/>
<path d="M0 0 C1.98 0 3.96 0 6 0 C6.433125 0.969375 6.86625 1.93875 7.3125 2.9375 C8.7014861 6.27731765 8.7014861 6.27731765 12 7 C11.67 7.66 11.34 8.32 11 9 C7.85835465 8.26307084 4.89403604 7.44437265 2 6 C0.4375 2.8125 0.4375 2.8125 0 0 Z " fill="#53AECE" transform="translate(344,105)"/>
<path d="M0 0 C2.11328125 0.390625 2.11328125 0.390625 4 1 C2.71283353 2.00578589 1.42011342 3.00446798 0.125 4 C-0.59429687 4.556875 -1.31359375 5.11375 -2.0546875 5.6875 C-4 7 -4 7 -6 7 C-6 7.66 -6 8.32 -6 9 C-7.95927063 10.7143618 -9.95880212 12.38405168 -12 14 C-12.66 13.67 -13.32 13.34 -14 13 C-13.505 12.566875 -13.01 12.13375 -12.5 11.6875 C-10.66781808 10.00259517 -10.66781808 10.00259517 -11 7 C-9.39125 6.38125 -9.39125 6.38125 -7.75 5.75 C-5.07763346 4.63158503 -3.89410904 3.89108358 -1.8125 1.75 C-1.214375 1.1725 -0.61625 0.595 0 0 Z " fill="#1C455D" transform="translate(153,107)"/>
<path d="M0 0 C4.88049925 3.9419417 9.0580583 8.11950075 13 13 C8.53037166 11.35329482 6.68255113 10.0238267 4 6 C0.93443402 5.26656572 0.93443402 5.26656572 -2 5 C-1.125 1.125 -1.125 1.125 0 0 Z " fill="#154377" transform="translate(203,322)"/>
<path d="M0 0 C0 3 0 3 -1.35546875 4.6484375 C-1.96003906 5.21820313 -2.56460937 5.78796875 -3.1875 6.375 C-3.82558594 6.98214844 -4.46367187 7.58929688 -5.12109375 8.21484375 C-6.05115234 9.09849609 -6.05115234 9.09849609 -7 10 C-7.91873707 10.97722431 -8.8357138 11.95611023 -9.75 12.9375 C-12 15 -12 15 -15 15 C-13.625 12.5 -13.625 12.5 -12 10 C-11.34 10 -10.68 10 -10 10 C-9.67 9.01 -9.34 8.02 -9 7 C-7.02678947 5.6273318 -5.02456848 4.29572383 -3 3 C-1.20605554 1.37648891 -1.20605554 1.37648891 0 0 Z " fill="#132B3F" transform="translate(410,296)"/>
<path d="M0 0 C0 0.66 0 1.32 0 2 C0.99 2.33 1.98 2.66 3 3 C-1.63060688 4.92941953 -6.08699287 6.04469306 -11 7 C-11 6.01 -11 5.02 -11 4 C-9.73308493 3.32591692 -8.46129251 2.66099503 -7.1875 2 C-6.47980469 1.62875 -5.77210938 1.2575 -5.04296875 0.875 C-3 0 -3 0 0 0 Z " fill="#4792AB" transform="translate(146,33)"/>
<path d="M0 0 C-0.33 0.99 -0.66 1.98 -1 3 C-4.0625 4.1875 -4.0625 4.1875 -7 5 C-7 5.66 -7 6.32 -7 7 C-5.68 7.33 -4.36 7.66 -3 8 C-3.99 8.495 -3.99 8.495 -5 9 C-7.625 8.0625 -7.625 8.0625 -10 7 C-10 5.35 -10 3.7 -10 2 C-8.7090864 1.66376204 -7.41723903 1.33110751 -6.125 1 C-5.40570313 0.814375 -4.68640625 0.62875 -3.9453125 0.4375 C-2 0 -2 0 0 0 Z " fill="#61C7EB" transform="translate(180,23)"/>
<path d="M0 0 C0.71484375 1.546875 0.71484375 1.546875 1 4 C-0.05391226 6.53857885 -1.13965574 8.84495527 -2.4375 11.25 C-2.77587891 11.8996875 -3.11425781 12.549375 -3.46289062 13.21875 C-4.29786887 14.81814494 -5.14753114 16.40985859 -6 18 C-7.09658936 14.71023192 -6.79953138 13.28696233 -6 10 C-5.34 10 -4.68 10 -4 10 C-4.04125 9.236875 -4.0825 8.47375 -4.125 7.6875 C-4 5 -4 5 -2 2 C-1.34 2 -0.68 2 0 2 C0 1.34 0 0.68 0 0 Z " fill="#183B4F" transform="translate(439,246)"/>
<path d="M0 0 C4.42857143 5.14285714 4.42857143 5.14285714 5 9 C5.66 9 6.32 9 7 9 C7 11.97 7 14.94 7 18 C5.15479877 15.23219815 3.77222068 12.5734697 2.375 9.5625 C1.70597656 8.14130859 1.70597656 8.14130859 1.0234375 6.69140625 C0 4 0 4 0 0 Z " fill="#3A7DA3" transform="translate(366,132)"/>
<path d="M0 0 C2.475 0.99 2.475 0.99 5 2 C4.67 2.66 4.34 3.32 4 4 C3.34 4 2.68 4 2 4 C2.33 5.32 2.66 6.64 3 8 C0.525 7.01 0.525 7.01 -2 6 C-2 5.34 -2 4.68 -2 4 C-2.99 3.67 -3.98 3.34 -5 3 C-4.360625 2.690625 -3.72125 2.38125 -3.0625 2.0625 C-1.06389179 1.1654837 -1.06389179 1.1654837 0 0 Z " fill="#58B9DC" transform="translate(340,96)"/>
<path d="M0 0 C0.66 0.33 1.32 0.66 2 1 C0.6875 2.5 0.6875 2.5 -1 4 C-1.99 4 -2.98 4 -4 4 C-4.33 4.99 -4.66 5.98 -5 7 C-5.99 7 -6.98 7 -8 7 C-8.33 7.99 -8.66 8.98 -9 10 C-10.98 10.33 -12.96 10.66 -15 11 C-10.9339831 6.60870175 -5.69073691 2.10768034 0 0 Z " fill="#32657A" transform="translate(122,44)"/>
<path d="M0 0 C2.28280201 7.91139017 -0.82724158 14.79857624 -4 22 C-4.66 22 -5.32 22 -6 22 C-5.479113 18.77050063 -4.61950169 15.77309079 -3.5625 12.6875 C-2.12899962 8.49943026 -1.01801863 4.30700188 0 0 Z " fill="#0F2B3E" transform="translate(374,204)"/>
<path d="M0 0 C0.66 0.33 1.32 0.66 2 1 C1.67 1.66 1.34 2.32 1 3 C-6.54642291 4.84392234 -14.26082036 5.31445877 -22 5 C-22 4.67 -22 4.34 -22 4 C-15.72110955 2.59712426 -9.57317495 1.68735704 -3.15234375 1.24609375 C-1.02113227 1.22853362 -1.02113227 1.22853362 0 0 Z " fill="#36708F" transform="translate(326,274)"/>
<path d="M0 0 C2.6875 0.3125 2.6875 0.3125 5 1 C4.67 1.66 4.34 2.32 4 3 C5.32 4.65 6.64 6.3 8 8 C4.58678765 8 3.60527115 7.33132534 0.8125 5.5 C0.09707031 5.0359375 -0.61835938 4.571875 -1.35546875 4.09375 C-1.89816406 3.7328125 -2.44085938 3.371875 -3 3 C-1.66796875 1.48046875 -1.66796875 1.48046875 0 0 Z " fill="#327087" transform="translate(331,94)"/>
<path d="M0 0 C1.01205993 3.17387501 1.0451684 3.8787585 -0.1875 7.1875 C-2 10 -2 10 -4.0625 10.8125 C-4.701875 10.874375 -5.34125 10.93625 -6 11 C-6.99 11.495 -6.99 11.495 -8 12 C-6.59023295 8.96147295 -4.91129772 6.4060405 -2.875 3.75 C-2.06675781 2.69039062 -2.06675781 2.69039062 -1.2421875 1.609375 C-0.83226562 1.07828125 -0.42234375 0.5471875 0 0 Z " fill="#153A50" transform="translate(360,240)"/>
<path d="M0 0 C1.1898306 2.3796612 1.13349966 3.91485735 1.125 6.5625 C1.12757812 7.36816406 1.13015625 8.17382812 1.1328125 9.00390625 C1 11 1 11 0 12 C-1.66617115 12.04063832 -3.33388095 12.042721 -5 12 C-3.85814266 7.52040582 -2.56984833 3.85477249 0 0 Z " fill="#2F6580" transform="translate(52,117)"/>
<path d="M0 0 C0.33 0 0.66 0 1 0 C1 1.98 1 3.96 1 6 C0.071875 6.309375 0.071875 6.309375 -0.875 6.625 C-3.8300129 8.53706717 -3.95568305 10.72780688 -5 14 C-5.99 14.33 -6.98 14.66 -8 15 C-6.53025751 9.26800429 -3.55513098 4.66416601 0 0 Z " fill="#28596D" transform="translate(61,102)"/>
<path d="M0 0 C1.30660357 4.29727397 0.6596762 7.60215865 0 12 C-0.66 12 -1.32 12 -2 12 C-2.66 13.32 -3.32 14.64 -4 16 C-5.35304209 11.94087374 -4.15216503 10.22850409 -2.5625 6.3125 C-2.08941406 5.13300781 -1.61632813 3.95351562 -1.12890625 2.73828125 C-0.75636719 1.83464844 -0.38382813 0.93101562 0 0 Z " fill="#27566E" transform="translate(43,136)"/>
<path d="M0 0 C4.9317341 0.44833946 8.3192924 2.86026095 12 6 C12 6.33 12 6.66 12 7 C8.6875 7.25 8.6875 7.25 5 7 C3.1875 5.1875 3.1875 5.1875 2 3 C1.34 2.01 0.68 1.02 0 0 Z " fill="#336F80" transform="translate(366,35)"/>
<path d="M0 0 C1.28094579 4.22340824 0.64949746 6.87625635 -1 11 C-3.625 12.9375 -3.625 12.9375 -6 14 C-4.50829734 9.0276578 -2.39542583 4.58154261 0 0 Z " fill="#173951" transform="translate(367,226)"/>
<path d="M0 0 C0.33 0 0.66 0 1 0 C1.62621031 6.88831341 -0.64193933 12.58902255 -3 19 C-3.33 19 -3.66 19 -4 19 C-3.37968409 12.42465139 -1.85102717 6.33307408 0 0 Z " fill="#163B4A" transform="translate(37,153)"/>
<path d="M0 0 C0.99 0.33 1.98 0.66 3 1 C1.43358249 5.30764815 -0.68336156 9.06171464 -3 13 C-4.53445094 9.93109813 -3.54984289 7.29905734 -3 4 C-2.01 4 -1.02 4 0 4 C0 2.68 0 1.36 0 0 Z " fill="#2B677F" transform="translate(116,145)"/>
<path d="M0 0 C0.99 0.33 1.98 0.66 3 1 C3 7.27 3 13.54 3 20 C2.67 20 2.34 20 2 20 C-0.29612756 6.3667426 -0.29612756 6.3667426 0 0 Z " fill="#3D82A6" transform="translate(375,157)"/>
<path d="M0 0 C0.721875 0.185625 1.44375 0.37125 2.1875 0.5625 C5.12826973 1.01995307 7.14103058 0.73516357 10 0 C6.76478258 2.48862878 3.40739705 4.75421558 0 7 C-0.66 6.67 -1.32 6.34 -2 6 C-1.34 4.02 -0.68 2.04 0 0 Z " fill="#27657F" transform="translate(159,100)"/>
<path d="M0 0 C3.1875 -0.3125 3.1875 -0.3125 7 0 C9.9375 2.5 9.9375 2.5 12 5 C10.02 4.34 8.04 3.68 6 3 C5.67 3.66 5.34 4.32 5 5 C3.68 4.34 2.36 3.68 1 3 C1.33 2.34 1.66 1.68 2 1 C1.34 0.67 0.68 0.34 0 0 Z " fill="#3E94AF" transform="translate(373,42)"/>
<path d="M0 0 C0.66 0 1.32 0 2 0 C2 2.64 2 5.28 2 8 C1.34 8 0.68 8 0 8 C-0.12375 8.763125 -0.2475 9.52625 -0.375 10.3125 C-1 13 -1 13 -3 16 C-2.40984815 10.49191603 -1.43336231 5.35121931 0 0 Z " fill="#26546D" transform="translate(447,208)"/>
<path d="M0 0 C1 3 1 3 -0.3125 5.6875 C-0.869375 6.450625 -1.42625 7.21375 -2 8 C-2.66 8 -3.32 8 -4 8 C-4.2165625 8.928125 -4.2165625 8.928125 -4.4375 9.875 C-5 12 -5 12 -6 14 C-6.66 13.67 -7.32 13.34 -8 13 C-7.25 9.625 -7.25 9.625 -6 6 C-4 4.8125 -4 4.8125 -2 4 C-0.73195434 1.9664052 -0.73195434 1.9664052 0 0 Z " fill="#122939" transform="translate(426,273)"/>
<path d="M0 0 C1.9375 0.375 1.9375 0.375 4 1 C4.33 1.66 4.66 2.32 5 3 C6.32 2.67 7.64 2.34 9 2 C8.67 2.99 8.34 3.98 8 5 C6.02 5.33 4.04 5.66 2 6 C1.34 4.02 0.68 2.04 0 0 Z " fill="#45B8E3" transform="translate(158,96)"/>
<path d="M0 0 C1.32 0 2.64 0 4 0 C4 6.6 4 13.2 4 20 C3.67 20 3.34 20 3 20 C2.67 14.39 2.34 8.78 2 3 C1.34 2.67 0.68 2.34 0 2 C0 1.34 0 0.68 0 0 Z " fill="#213958" transform="translate(226,348)"/>
<path d="M0 0 C0.33 0.99 0.66 1.98 1 3 C0.34 3 -0.32 3 -1 3 C-1.103125 4.11375 -1.20625 5.2275 -1.3125 6.375 C-1.539375 7.57125 -1.76625 8.7675 -2 10 C-2.99 10.66 -3.98 11.32 -5 12 C-4.74337755 10.55989519 -4.46909179 9.1229313 -4.1875 7.6875 C-4.03667969 6.88699219 -3.88585937 6.08648437 -3.73046875 5.26171875 C-2.92427764 2.76554413 -1.97947998 1.67577894 0 0 Z " fill="#29658C" transform="translate(421,276)"/>
<path d="M0 0 C0.99 0 1.98 0 3 0 C1.68775452 3.93673644 0.08089673 6.22719294 -3 9 C-3 7.02 -3 5.04 -3 3 C-2.34 3 -1.68 3 -1 3 C-0.67 2.01 -0.34 1.02 0 0 Z " fill="#296073" transform="translate(122,137)"/>
<path d="M0 0 C4.35535069 1.16142685 6.64619703 2.07699505 9 6 C7.68 6.33 6.36 6.66 5 7 C0 1.125 0 1.125 0 0 Z " fill="#5FC5E4" transform="translate(379,45)"/>
<path d="M0 0 C0.90492188 0.02320312 1.80984375 0.04640625 2.7421875 0.0703125 C4.10730469 0.09738281 4.10730469 0.09738281 5.5 0.125 C6.19867188 0.14820312 6.89734375 0.17140625 7.6171875 0.1953125 C7.9471875 1.5153125 8.2771875 2.8353125 8.6171875 4.1953125 C7.2971875 4.1953125 5.9771875 4.1953125 4.6171875 4.1953125 C4.6171875 3.2053125 4.6171875 2.2153125 4.6171875 1.1953125 C0.1621875 1.6903125 0.1621875 1.6903125 -4.3828125 2.1953125 C-2.3828125 0.1953125 -2.3828125 0.1953125 0 0 Z " fill="#3C87A0" transform="translate(187.3828125,19.8046875)"/>
<path d="M0 0 C0.66 0 1.32 0 2 0 C2 0.66 2 1.32 2 2 C-1.46153846 5 -1.46153846 5 -4 5 C-4 5.66 -4 6.32 -4 7 C-5.65 7.66 -7.3 8.32 -9 9 C-8.67 7.35 -8.34 5.7 -8 4 C-6.576875 3.566875 -6.576875 3.566875 -5.125 3.125 C-1.94788422 2.23174891 -1.94788422 2.23174891 0 0 Z " fill="#0D273A" transform="translate(393,312)"/>
<path d="M0 0 C0.66 0.33 1.32 0.66 2 1 C-1.3 3.31 -4.6 5.62 -8 8 C-8.66 7.67 -9.32 7.34 -10 7 C-9.67 6.01 -9.34 5.02 -9 4 C-7.02253397 3.26919734 -5.01927511 2.60578253 -3 2 C-2.01 1.34 -1.02 0.68 0 0 Z " fill="#0C1F2E" transform="translate(381,322)"/>
<path d="M0 0 C1.60031344 3.20062687 0.03173691 5.72271806 -1 9 C-1.33 9 -1.66 9 -2 9 C-1.125 1.125 -1.125 1.125 0 0 Z M-3 9 C-2.34 9.66 -1.68 10.32 -1 11 C-2.32 11.99 -3.64 12.98 -5 14 C-5 12.68 -5 11.36 -5 10 C-4.34 9.67 -3.68 9.34 -3 9 Z " fill="#307094" transform="translate(373,216)"/>
<path d="M0 0 C4.43458973 1.3937282 6.87378374 3.60582235 10 7 C9.67 7.66 9.34 8.32 9 9 C1.33257403 3.9977221 1.33257403 3.9977221 0 0 Z " fill="#27505E" transform="translate(392,53)"/>
<path d="M0 0 C-0.33 0.99 -0.66 1.98 -1 3 C-4.3 3.33 -7.6 3.66 -11 4 C-8.07317918 1.07317918 -4.14037627 0 0 0 Z " fill="#2F668A" transform="translate(353,336)"/>
<path d="M0 0 C0 0.66 0 1.32 0 2 C-6.75 6 -6.75 6 -9 6 C-7.34548768 1.03646304 -5.15148826 0 0 0 Z " fill="#285578" transform="translate(384,320)"/>
<path d="M0 0 C0.33 1.32 0.66 2.64 1 4 C0.071875 4.12375 0.071875 4.12375 -0.875 4.25 C-3.18437567 4.81258459 -3.18437567 4.81258459 -4.25 7.0625 C-4.4975 7.701875 -4.745 8.34125 -5 9 C-5.66 8.67 -6.32 8.34 -7 8 C-4.69 5.36 -2.38 2.72 0 0 Z " fill="#2A5F7D" transform="translate(355,249)"/>
<path d="M0 0 C1.32 0.33 2.64 0.66 4 1 C1.36 2.98 -1.28 4.96 -4 7 C-4.66 6.67 -5.32 6.34 -6 6 C-5.09972412 4.96468274 -4.17906965 3.94705835 -3.25 2.9375 C-2.48429688 2.08478516 -2.48429688 2.08478516 -1.703125 1.21484375 C-1.14109375 0.81394531 -0.5790625 0.41304688 0 0 Z " fill="#164051" transform="translate(153,107)"/>
<path d="M0 0 C0.99 0.33 1.98 0.66 3 1 C1.3125 3.5 1.3125 3.5 -1 6 C-3.75 6.3125 -3.75 6.3125 -6 6 C-6 5.34 -6 4.68 -6 4 C-4.7934375 3.566875 -4.7934375 3.566875 -3.5625 3.125 C-0.8673532 2.26737432 -0.8673532 2.26737432 0 0 Z " fill="#4BBFEB" transform="translate(119,49)"/>
<path d="M0 0 C0 0.66 0 1.32 0 2 C-3.40562852 2.77842938 -6.50765756 3.09978121 -10 3 C-10 2.34 -10 1.68 -10 1 C-6.59437148 0.22157062 -3.49234244 -0.09978121 0 0 Z " fill="#65CDE4" transform="translate(192,21)"/>
<path d="M0 0 C0 3 0 3 -2.25 5.75 C-3.1575 6.4925 -4.065 7.235 -5 8 C-7.171875 7.640625 -7.171875 7.640625 -9 7 C-8.43410156 6.57847656 -7.86820312 6.15695312 -7.28515625 5.72265625 C-6.55167969 5.17480469 -5.81820313 4.62695312 -5.0625 4.0625 C-4.33160156 3.51722656 -3.60070312 2.97195313 -2.84765625 2.41015625 C-1.0865547 1.13092062 -1.0865547 1.13092062 0 0 Z " fill="#2B607C" transform="translate(347,258)"/>
<path d="M0 0 C0.66 0 1.32 0 2 0 C0.95125002 2.62187494 0.35068687 3.79371361 -2.125 5.25 C-2.74375 5.4975 -3.3625 5.745 -4 6 C-4 5.34 -4 4.68 -4 4 C-4.66 4 -5.32 4 -6 4 C-6 3.34 -6 2.68 -6 2 C-3.525 2.495 -3.525 2.495 -1 3 C-0.67 2.01 -0.34 1.02 0 0 Z " fill="#2C638B" transform="translate(406,297)"/>
<path d="M0 0 C4.3177458 0.50797009 8.03302114 1.19682779 12 3 C8.93109813 4.53445094 6.29905734 3.54984289 3 3 C3 2.34 3 1.68 3 1 C2.01 0.67 1.02 0.34 0 0 Z " fill="#275668" transform="translate(333,22)"/>
<path d="M0 0 C0 3 0 3 -2 5.1875 C-2.66 5.785625 -3.32 6.38375 -4 7 C-4.33 5.02 -4.66 3.04 -5 1 C-3.35 0.67 -1.7 0.34 0 0 Z " fill="#163248" transform="translate(417,287)"/>
<path d="M0 0 C2.475 0.99 2.475 0.99 5 2 C4.67 2.66 4.34 3.32 4 4 C3.34 4 2.68 4 2 4 C2 4.66 2 5.32 2 6 C1.34 6 0.68 6 0 6 C0 4.02 0 2.04 0 0 Z " fill="#50C5EE" transform="translate(340,96)"/>
<path d="M0 0 C5.57142857 5.14285714 5.57142857 5.14285714 6 9 C3 8 3 8 1.3125 5.0625 C0 2 0 2 0 0 Z " fill="#1D3F50" transform="translate(414,75)"/>
<path d="M0 0 C1 2 1 2 0.25 5.0625 C-0.1625 6.031875 -0.575 7.00125 -1 8 C-1.99 8.33 -2.98 8.66 -4 9 C-2.94124926 5.59687262 -1.99097846 2.98646769 0 0 Z " fill="#1A3C4B" transform="translate(57,108)"/>
<path d="M0 0 C2.375 0.1875 2.375 0.1875 5 1 C6.3125 3.5625 6.3125 3.5625 7 6 C4.50638429 4.79618552 2.31856917 3.54571278 0 2 C0 1.34 0 0.68 0 0 Z " fill="#23485D" transform="translate(339,103)"/>
<path d="M0 0 C1 3.875 1 3.875 1 5 C-0.65 5 -2.3 5 -4 5 C-3.6875 3.0625 -3.6875 3.0625 -3 1 C-2.01 0.67 -1.02 0.34 0 0 Z " fill="#52C2E9" transform="translate(394,57)"/>
</svg>
