<svg width="118" height="45" viewBox="0 0 118 45" fill="none" xmlns="http://www.w3.org/2000/svg">
<path d="M44.0881 37.0381H0V39.4121H44.0881V37.0381Z" fill="#141BEB"/>
<mask id="mask0_1831_9172" style="mask-type:luminance" maskUnits="userSpaceOnUse" x="49" y="31" width="15" height="14">
<path d="M63.1817 31.4546H49.1602V45H63.1817V31.4546Z" fill="white"/>
</mask>
<g mask="url(#mask0_1831_9172)">
<path d="M56.1742 31.4542C54.8083 31.4712 53.4797 31.8815 52.351 32.6378C51.2224 33.3907 50.3513 34.4556 49.8395 35.6935C49.3278 36.9314 49.2023 38.2914 49.4803 39.6005C49.7582 40.9096 50.4225 42.1067 51.3952 43.0462C52.368 43.9856 53.6017 44.6232 54.9404 44.8775C56.2826 45.1319 57.6688 44.9928 58.9297 44.4774C60.1905 43.9619 61.2649 43.0936 62.0241 41.9812C62.7799 40.8689 63.1866 39.5631 63.1866 38.2269C63.1765 36.4193 62.4308 34.6896 61.1158 33.4212C59.8007 32.1528 58.0247 31.444 56.1775 31.4542H56.1742Z" fill="#00EDBE"/>
<path d="M58.9442 35.7195C58.9238 35.3803 59.0086 35.0446 59.1882 34.7529H53.5382C53.4874 34.7529 53.4365 34.7631 53.3891 34.7801C53.3416 34.8004 53.301 34.8275 53.2637 34.8615C53.2264 34.8954 53.1993 34.9395 53.1789 34.9835C53.1586 35.0276 53.1484 35.0785 53.1484 35.1294V36.3096C53.1484 36.3605 53.1586 36.408 53.1789 36.4554C53.1993 36.4995 53.2264 36.5436 53.2637 36.5775C53.301 36.6114 53.3416 36.6386 53.3891 36.6589C53.4365 36.6793 53.4874 36.6861 53.5382 36.6861H59.1882C59.0119 36.3944 58.9272 36.0586 58.9442 35.7195Z" fill="#141BEB"/>
<path d="M52.2675 38.2429C52.2844 38.5821 52.1997 38.9178 52.0234 39.2095H57.6734C57.7243 39.2095 57.7751 39.1993 57.8225 39.1824C57.87 39.162 57.9107 39.1349 57.9479 39.101C57.9852 39.067 58.0123 39.023 58.0327 38.9789C58.053 38.9348 58.0632 38.8839 58.0632 38.833V37.6528C58.0632 37.6019 58.053 37.5545 58.0327 37.507C58.0123 37.4629 57.9852 37.4188 57.9479 37.3849C57.9107 37.351 57.87 37.3238 57.8225 37.3035C57.7751 37.2831 57.7243 37.2764 57.6734 37.2764H52.0234C52.1997 37.568 52.2844 37.9038 52.2675 38.2429Z" fill="#141BEB"/>
<path d="M58.9442 40.7659C58.9238 40.4267 59.0086 40.091 59.1882 39.7993H53.5382C53.4874 39.7993 53.4365 39.8095 53.3891 39.8264C53.3416 39.8468 53.301 39.8739 53.2637 39.9078C53.2264 39.9418 53.1993 39.9858 53.1789 40.0299C53.1586 40.074 53.1484 40.1249 53.1484 40.1758V41.356C53.1484 41.4069 53.1586 41.4543 53.1789 41.5018C53.1993 41.5459 53.2264 41.59 53.2637 41.6239C53.301 41.6578 53.3416 41.685 53.3891 41.7053C53.4365 41.7257 53.4874 41.7324 53.5382 41.7324H59.1882C59.0119 41.4408 58.9272 41.105 58.9442 40.7659Z" fill="#141BEB"/>
</g>
<path d="M70.9435 35.4424C72.5975 35.4424 73.6752 36.5548 73.6752 38.3895C73.6752 39.7834 72.8483 41.2112 70.9672 41.2112C69.2895 41.2112 68.2422 40.0208 68.2422 38.2641C68.2422 36.8397 69.1404 35.4424 70.9435 35.4424ZM72.1704 38.2878C72.1704 37.2331 71.6654 36.7277 70.9672 36.7277C70.1571 36.7277 69.6996 37.3653 69.6996 38.3421C69.6996 39.2238 70.1809 39.9191 70.9367 39.9191C71.7806 39.9191 72.1738 39.2747 72.1738 38.2878H72.1704ZM76.7527 37.1381C77.6814 37.1381 78.4779 37.83 78.4779 39.1391C78.4779 40.4482 77.6272 41.0993 76.6578 41.1095C76.1393 41.1095 75.7054 40.8653 75.641 40.7636C75.641 41.0247 75.6716 42.6933 75.6004 42.7408C75.5292 42.795 74.4514 42.8425 74.3023 42.7645C74.2785 42.7577 74.326 37.2907 74.3972 37.1144C74.404 37.0906 75.5767 37.1551 75.5767 37.1551C75.5767 37.2025 75.5699 37.5349 75.5699 37.579C75.6241 37.484 76.041 37.1381 76.7494 37.1381H76.7527ZM77.1459 39.156C77.1459 38.6202 76.8239 38.3353 76.3969 38.3353C75.8614 38.3353 75.6105 38.6744 75.6105 39.1458C75.6105 39.6647 75.9732 39.9801 76.3664 39.9801C76.8612 39.9801 77.1459 39.641 77.1459 39.1526V39.156ZM80.1319 39.4545C80.1319 39.8716 80.4301 40.1327 80.9758 40.1327C81.3995 40.1327 81.691 39.9835 81.8977 39.858C81.9757 39.936 82.2977 40.5906 82.3078 40.7093C82.0943 40.906 81.552 41.157 80.9148 41.157C79.4913 41.157 78.9151 40.204 78.9151 39.1967C78.9151 38.1318 79.576 37.1415 80.8131 37.1415C81.8604 37.1415 82.4976 37.9283 82.4976 38.8101C82.4976 39.0543 82.4739 39.2578 82.4264 39.4172C82.0333 39.4714 80.6064 39.4714 80.1353 39.4578L80.1319 39.4545ZM80.1251 38.7287L81.3622 38.705C81.3792 38.3183 81.1826 38.0199 80.803 38.0199C80.3929 38.0199 80.1251 38.3285 80.1251 38.7287ZM83.0772 37.2704C83.1484 37.1686 84.2499 37.1211 84.3211 37.1924C84.3143 37.3585 84.3041 37.6163 84.2973 37.6638C84.4702 37.4026 84.8566 37.111 85.4938 37.111C86.3513 37.111 86.8868 37.796 86.8868 38.8135C86.8868 39.3425 86.8563 40.672 86.8224 41.0586C86.8156 41.1366 85.6327 41.123 85.609 41.1061C85.5785 41.0891 85.6158 39.2306 85.6158 38.9491C85.6158 38.5252 85.426 38.2234 85.0159 38.2234C84.582 38.2234 84.3245 38.5625 84.3245 38.8677C84.3245 39.1357 84.3177 41.0247 84.294 41.0586C84.2702 41.0891 83.1213 41.0756 83.0975 41.0281C83.0806 40.9976 83.0501 38.939 83.0738 37.2704H83.0772ZM90.5201 38.3183C90.5201 39.4443 91.2115 39.8953 91.8826 39.8953C92.5537 39.8953 92.9536 39.5562 93.1265 39.4307C93.3061 39.5562 93.6552 40.1938 93.7806 40.4617C93.4417 40.8483 92.6452 41.2248 91.7403 41.2248C89.8965 41.2248 89.039 39.9089 89.039 38.2641C89.039 36.6192 90.1575 35.4593 91.9436 35.4593C92.8486 35.4593 93.5027 35.7442 93.7467 35.9782C93.7467 36.1342 93.4146 36.9855 93.218 37.1517C92.9333 36.9855 92.4554 36.7718 91.9572 36.7718C91.1471 36.7718 90.5167 37.4162 90.5167 38.3149L90.5201 38.3183ZM94.1602 37.9724C94.167 37.8401 94.689 37.0974 95.743 37.0974C96.7192 37.0974 97.475 37.674 97.475 38.8237C97.475 39.6681 97.4343 40.9738 97.4106 41.0213C97.3869 41.0688 96.3938 41.0213 96.3938 41.0213L96.3226 40.6822C96.2684 40.7364 95.9362 41.1163 95.316 41.1163C94.4585 41.1163 94.0958 40.6109 94.0958 39.9259C94.0958 39.2408 94.7195 38.7694 95.5058 38.7694C95.8684 38.7694 96.0887 38.8711 96.2379 38.9831C96.2447 38.6439 96.2616 38.1793 95.5532 38.1793C95.0652 38.1793 94.8381 38.5252 94.7669 38.5354C94.6957 38.5354 94.1535 38.064 94.1602 37.9758V37.9724ZM95.1533 39.9021C95.1533 40.1633 95.3736 40.343 95.6651 40.343C96.0108 40.343 96.1836 40.1395 96.1836 39.9021C96.1836 39.6274 95.9566 39.4545 95.6651 39.4545C95.3567 39.4545 95.1533 39.6512 95.1533 39.9021ZM98.2477 37.2229C98.3189 37.1042 99.4204 37.1754 99.4916 37.2466C99.4848 37.4128 99.4747 37.6265 99.4679 37.6706C99.6407 37.4094 99.939 37.1347 100.58 37.1347C101.02 37.1347 101.376 37.3552 101.586 37.7011C101.854 37.2297 102.454 37.1347 102.776 37.1347C103.769 37.1347 104.21 37.7893 104.21 38.7965C104.21 39.3324 104.179 40.6957 104.155 41.0654C104.149 41.1366 102.952 41.1366 102.928 41.1129C102.905 41.0959 102.945 39.2917 102.945 38.922C102.945 38.5523 102.844 38.2437 102.427 38.2437C102.01 38.2437 101.868 38.6676 101.868 38.9118C101.868 39.4782 101.844 40.6449 101.82 41.0383C101.813 41.1095 100.624 41.062 100.607 41.045C100.576 41.0281 100.613 39.1865 100.613 38.9186C100.613 38.532 100.502 38.2403 100.095 38.2403C99.6882 38.2403 99.512 38.5862 99.512 38.8406C99.512 39.0678 99.495 41.062 99.4713 41.0925C99.4476 41.1231 98.2986 41.1095 98.2749 41.062C98.2579 41.0315 98.2274 38.8881 98.2511 37.2161L98.2477 37.2229ZM107.423 37.1347C108.351 37.1347 109.148 37.8266 109.148 39.1357C109.148 40.4448 108.297 41.0959 107.328 41.1061C106.809 41.1061 106.375 40.8619 106.311 40.7602C106.311 41.0213 106.341 42.6899 106.27 42.7374C106.199 42.7916 105.121 42.8391 104.972 42.7611C104.948 42.7543 104.996 37.2873 105.067 37.111C105.074 37.0872 106.247 37.1517 106.247 37.1517C106.247 37.1992 106.24 37.5315 106.24 37.5756C106.294 37.4806 106.711 37.1347 107.419 37.1347H107.423ZM107.816 39.1526C107.816 38.6168 107.494 38.3319 107.067 38.3319C106.531 38.3319 106.28 38.671 106.28 39.1424C106.28 39.6613 106.643 39.9767 107.036 39.9767C107.531 39.9767 107.816 39.6376 107.816 39.1492V39.1526ZM113.456 41.045C113.384 41.1468 112.361 41.1163 112.283 41.045C112.29 40.8789 112.283 40.6516 112.29 40.5974C112.117 40.8483 111.713 41.1807 111.124 41.1807C110.171 41.1807 109.714 40.5974 109.714 39.4952C109.714 38.9288 109.792 37.5824 109.815 37.2093C109.832 37.1313 111.012 37.1449 111.036 37.1686C111.053 37.2568 110.971 39.0509 110.971 39.3595C110.971 39.8004 111.161 40.0683 111.571 40.0683C112.005 40.0683 112.232 39.7359 112.239 39.39C112.239 39.1628 112.269 37.2229 112.303 37.1924C112.327 37.1618 113.469 37.1754 113.5 37.2229C113.506 37.2534 113.483 39.3663 113.452 41.045H113.456ZM115.74 41.1943C114.954 41.1943 114.235 40.8789 114.127 40.7602C114.062 40.6822 114.425 39.8241 114.489 39.8547C114.615 39.9191 115.103 40.2718 115.608 40.2718C115.923 40.2718 116.079 40.1599 116.079 39.9869C116.079 39.814 115.953 39.719 115.442 39.624C114.56 39.4748 114.15 39.1051 114.15 38.4438C114.15 37.5993 114.727 37.111 115.693 37.111C116.418 37.111 117.055 37.3552 117.157 37.4569C117.228 37.5281 116.865 38.3556 116.811 38.3624C116.77 38.3624 116.269 38.0538 115.811 38.0538C115.503 38.0538 115.371 38.203 115.371 38.3624C115.371 38.5354 115.503 38.6134 115.96 38.6778C116.896 38.8101 117.316 39.1357 117.316 39.8682C117.316 40.5601 116.845 41.1909 115.74 41.1909V41.1943Z" fill="#141BEB"/>
<path d="M0 28.5404H12.0761V24.4842H4.05022V16.1785H11.0424V12.3632H4.05022V4.05414H12.0761V0.23877H0V28.5404Z" fill="black"/>
<path d="M19.7042 0.23877H13.7051V28.5404H19.3449C21.7547 28.5404 23.6019 27.9129 24.8864 26.6513C26.171 25.3931 26.8115 23.4396 26.8115 20.7875V7.55411C26.8115 5.22419 26.2082 3.41994 25.005 2.14815C23.7984 0.876361 22.0326 0.23877 19.7008 0.23877H19.7042ZM22.7613 21.1843C22.7613 22.4018 22.5241 23.2972 22.0462 23.867C21.5683 24.4367 20.7616 24.7216 19.6228 24.7216H17.7553V4.05414H19.6228C20.8158 4.05414 21.6361 4.35937 22.0868 4.96983C22.5376 5.58029 22.7613 6.44172 22.7613 7.55411V21.1877V21.1843Z" fill="black"/>
<path d="M60.4746 1.86868C59.2816 0.624025 57.7327 0 55.8279 0C54.8483 0 53.9536 0.166181 53.1469 0.495151C52.3403 0.827512 51.6421 1.28536 51.0625 1.86529C50.4795 2.44862 50.0287 3.13708 49.7135 3.93068C49.3949 4.72428 49.2357 5.58571 49.2357 6.51496V11.3003L48.9815 11.4461L46.131 13.091L43.2806 11.4461L42.7417 11.1341V0.237401H38.6915V21.7798C38.6915 22.7871 38.4543 23.5298 37.9764 24.0046C37.4985 24.4828 36.9053 24.7202 36.1902 24.7202C35.4751 24.7202 34.8785 24.4828 34.404 24.0046C33.9261 23.5264 33.6889 22.7871 33.6889 21.7798V0.237401H29.6387V22.18C29.6387 23.1093 29.8115 23.9639 30.1538 24.744C30.4962 25.5274 30.9741 26.2226 31.5841 26.8297C32.1942 27.4402 32.889 27.915 33.6686 28.2609C34.4481 28.6034 35.2886 28.7764 36.1902 28.7764C37.0918 28.7764 37.9391 28.6034 38.7322 28.2609C39.5253 27.9184 40.2269 27.4402 40.8369 26.8297C41.447 26.2192 41.9147 25.524 42.2469 24.744C42.5791 23.9639 42.7451 23.1093 42.7451 22.18V15.8923L43.284 15.5803L46.1344 13.9354L48.9848 15.5803L49.239 15.7261V22.0986C49.239 23.3976 49.4424 24.4625 49.8559 25.2968C50.266 26.1311 50.788 26.8127 51.4251 27.3452C52.0623 27.8743 52.7775 28.2473 53.5706 28.4576C54.3637 28.6679 55.1466 28.7764 55.9126 28.7764C56.8141 28.7764 57.6547 28.5966 58.4342 28.2405C59.2138 27.8844 59.8984 27.3995 60.4814 26.789C61.0643 26.1785 61.5219 25.4833 61.8507 24.7033C62.1828 23.9232 62.3489 23.0923 62.3489 22.2207V20.4707H58.2987V21.8612C58.2987 22.4174 58.2207 22.8821 58.0614 23.2517C57.9021 23.6214 57.7021 23.9131 57.4649 24.1267C57.2005 24.3404 56.9158 24.493 56.6108 24.5846C56.3058 24.6761 56.021 24.7236 55.7567 24.7236C54.828 24.7236 54.1874 24.4455 53.8316 23.8893C53.4757 23.3331 53.296 22.6447 53.296 21.8239V7.35265C53.296 6.39965 53.4621 5.60945 53.7909 4.98881C54.123 4.36818 54.7907 4.05617 55.7974 4.05617C56.5667 4.05617 57.1734 4.34783 57.6242 4.93116C58.075 5.51449 58.2987 6.20295 58.2987 6.99655V8.34973H62.3489V6.75914C62.3489 5.77902 62.1828 4.87011 61.8507 4.03582C61.5185 3.20152 61.061 2.47914 60.4814 1.86868H60.4746Z" fill="black"/>
<path d="M73.6988 12.3627H68.6928V0.238281H64.6426V28.5399H68.6928V15.9407H73.6988V28.5399H77.749V0.238281H73.6988V12.3627Z" fill="black"/>
<path d="M85.0643 0.23877L78.75 28.537H82.8002L83.9933 22.4561H89.5144L90.7075 28.537H94.7577L88.44 0.23877H85.0643ZM84.7084 18.6407L86.6945 8.38501H86.7725L88.7586 18.6407H84.7084Z" fill="black"/>
<path d="M99.9116 0.23877H95.8613V28.537H99.9116V0.23877Z" fill="black"/>
<path d="M112.783 0.23877V17.2909H112.705L106.588 0.23877H102.693V28.5404H106.747V11.5289H106.825L113.021 28.5404H116.834V0.23877H112.783Z" fill="black"/>
</svg>
